<svg width="34" height="34" viewBox="0 0 34 34" fill="none" xmlns="http://www.w3.org/2000/svg">
<circle cx="17" cy="17" r="17" fill="#8E7255"/>
<path d="M26.8881 21.9201V24.9201C26.8892 25.1986 26.8322 25.4743 26.7206 25.7294C26.6091 25.9846 26.4454 26.2137 26.2402 26.402C26.035 26.5902 25.7927 26.7336 25.5289 26.8228C25.265 26.912 24.9855 26.9452 24.7081 26.9201C21.631 26.5857 18.6751 25.5342 16.0781 23.8501C13.6619 22.3148 11.6135 20.2663 10.0781 17.8501C8.38809 15.2413 7.33636 12.2711 7.00812 9.1801C6.98313 8.90356 7.01599 8.62486 7.10462 8.36172C7.19324 8.09859 7.33569 7.85679 7.52288 7.65172C7.71008 7.44665 7.93792 7.28281 8.19191 7.17062C8.44589 7.05843 8.72046 7.00036 8.99812 7.0001H11.9981C12.4834 6.99532 12.9539 7.16718 13.3219 7.48363C13.6898 7.80008 13.9302 8.23954 13.9981 8.7201C14.1247 9.68016 14.3596 10.6228 14.6981 11.5301C14.8327 11.888 14.8618 12.277 14.782 12.651C14.7023 13.0249 14.517 13.3682 14.2481 13.6401L12.9781 14.9101C14.4017 17.4136 16.4746 19.4865 18.9781 20.9101L20.2481 19.6401C20.52 19.3712 20.8633 19.1859 21.2372 19.1062C21.6112 19.0264 22.0002 19.0556 22.3581 19.1901C23.2654 19.5286 24.2081 19.7635 25.1681 19.8901C25.6539 19.9586 26.0975 20.2033 26.4146 20.5776C26.7318 20.9519 26.9003 21.4297 26.8881 21.9201Z" stroke="white" stroke-width="2" stroke-linecap="round" stroke-linejoin="round"/>
</svg>
