<svg width="92" height="92" viewBox="0 0 92 92" fill="none" xmlns="http://www.w3.org/2000/svg">
<rect width="92" height="92" rx="12" fill="#E15371"/>
<path fill-rule="evenodd" clip-rule="evenodd" d="M30.504 46L30.4294 46.3879C30.0501 48.3366 30.0149 50.3393 30.3249 52.3367L25 61.7361L30.8805 63.0663V72.808H38.6858V79.7647H57.4187V68.9934C62.8824 65.1656 66.003 59.0113 65.9984 52.4456L66 49.6259C66 48.563 65.9008 47.4709 65.701 46.3949L65.6298 46H30.504ZM64.442 49.6189C64.442 48.8568 64.385 48.073 64.2717 47.3001H31.8532C31.6011 48.846 31.6175 50.6555 31.9077 52.3468L31.9522 52.6227L27.383 60.6902L32.4416 61.8335V71.2622H40.2471V78.2189H55.8578V68.1865L56.2012 67.9545C61.3629 64.4352 64.4484 58.6365 64.4437 52.4442L64.442 49.6189Z" fill="#863244" stroke="#863244" stroke-width="1.5"/>
<path d="M41.2794 54.2C39.8833 54.2 38.7471 53.4765 38.7471 52.0294H37.0588C37.0588 54.2 38.9522 55.6471 41.2794 55.6471C43.6067 55.6471 45.5 54.2 45.5 52.0294H43.8118C43.8116 53.4765 42.6755 54.2 41.2794 54.2Z" fill="#863244" stroke="#863244" stroke-width="1.5"/>
<path d="M33.84 27.14H36.8C37.08 27.14 37.22 27.28 37.22 27.56V39.58C37.22 39.86 37.08 40 36.8 40H35.16C34.88 40 34.74 39.86 34.74 39.58V30.1H34.66L32.62 36.8C32.54 37.0667 32.3733 37.2 32.12 37.2H30.44C30.1867 37.2 30.02 37.0667 29.94 36.8L27.86 30.08H27.78V39.58C27.78 39.74 27.7533 39.8533 27.7 39.92C27.6467 39.9733 27.5333 40 27.36 40H25.72C25.44 40 25.3 39.86 25.3 39.58V27.56C25.3 27.28 25.44 27.14 25.72 27.14H28.7C28.8867 27.14 29.0133 27.2333 29.08 27.42L31.2 34.48H31.32L33.46 27.42C33.5 27.2333 33.6267 27.14 33.84 27.14ZM42.4517 27.56V39.58C42.4517 39.86 42.3117 40 42.0317 40H40.3317C40.0517 40 39.9117 39.86 39.9117 39.58V27.56C39.9117 27.28 40.0517 27.14 40.3317 27.14H42.0317C42.3117 27.14 42.4517 27.28 42.4517 27.56ZM47.2238 40H45.5638C45.2838 40 45.1438 39.86 45.1438 39.58V27.56C45.1438 27.28 45.2838 27.14 45.5638 27.14H47.0638C47.3438 27.14 47.5304 27.2333 47.6238 27.42L51.6638 35H51.7438V27.56C51.7438 27.28 51.8838 27.14 52.1638 27.14H53.8238C54.1038 27.14 54.2438 27.28 54.2438 27.56V39.58C54.2438 39.86 54.1038 40 53.8238 40H52.3638C52.0704 40 51.8571 39.8667 51.7238 39.6L47.7238 32.16H47.6438V39.58C47.6438 39.86 47.5038 40 47.2238 40ZM59.603 37.8H61.783C62.2096 37.8 62.5096 37.7133 62.683 37.54C62.8696 37.3533 62.963 37.0467 62.963 36.62V30.52C62.963 30.0933 62.8696 29.7933 62.683 29.62C62.5096 29.4333 62.2096 29.34 61.783 29.34H59.603C59.4563 29.34 59.383 29.4133 59.383 29.56V37.58C59.383 37.7267 59.4563 37.8 59.603 37.8ZM56.843 39.58V27.56C56.843 27.28 56.983 27.14 57.263 27.14H62.203C63.243 27.14 64.0496 27.4267 64.623 28C65.2096 28.56 65.503 29.36 65.503 30.4V36.74C65.503 37.78 65.2096 38.5867 64.623 39.16C64.0496 39.72 63.243 40 62.203 40H57.263C56.983 40 56.843 39.86 56.843 39.58Z" fill="white"/>
<path d="M27.64 24H25.72C25.48 24 25.4 23.86 25.48 23.58L28.64 11.56C28.7333 11.28 28.9333 11.14 29.24 11.14H31.9C32.2333 11.14 32.4333 11.28 32.5 11.56L35.66 23.58C35.74 23.86 35.66 24 35.42 24H33.5C33.3533 24 33.2533 23.9733 33.2 23.92C33.1467 23.8533 33.1067 23.74 33.08 23.58L32.52 21.38H28.62L28.06 23.58C28.0333 23.74 27.9867 23.8533 27.92 23.92C27.8667 23.9733 27.7733 24 27.64 24ZM30.54 13.56L29.1 19.34H32.06L30.62 13.56H30.54ZM41.4128 24H39.7328C39.4395 24 39.2928 23.86 39.2928 23.58V13.56C39.2928 13.4133 39.2195 13.34 39.0728 13.34H36.7928C36.5128 13.34 36.3728 13.2 36.3728 12.92V11.56C36.3728 11.28 36.5128 11.14 36.7928 11.14H44.3528C44.6328 11.14 44.7728 11.28 44.7728 11.56V12.92C44.7728 13.2 44.6328 13.34 44.3528 13.34H42.0728C41.9128 13.34 41.8328 13.4133 41.8328 13.56V23.58C41.8328 23.86 41.6928 24 41.4128 24ZM49.8 21.8H51.22C51.6467 21.8 51.9467 21.7133 52.12 21.54C52.3067 21.3533 52.4 21.0467 52.4 20.62V14.52C52.4 14.0933 52.3067 13.7933 52.12 13.62C51.9467 13.4333 51.6467 13.34 51.22 13.34H49.8C49.3733 13.34 49.0733 13.4333 48.9 13.62C48.7267 13.7933 48.64 14.0933 48.64 14.52V20.62C48.64 21.0467 48.7267 21.3533 48.9 21.54C49.0733 21.7133 49.3733 21.8 49.8 21.8ZM51.64 24H49.4C48.3467 24 47.5333 23.72 46.96 23.16C46.3867 22.6 46.1 21.7933 46.1 20.74V14.4C46.1 13.3467 46.3867 12.54 46.96 11.98C47.5333 11.42 48.3467 11.14 49.4 11.14H51.64C52.6933 11.14 53.5067 11.42 54.08 11.98C54.6533 12.54 54.94 13.3467 54.94 14.4V20.74C54.94 21.7933 54.6533 22.6 54.08 23.16C53.5067 23.72 52.6933 24 51.64 24ZM56.9952 23.58V22.38C56.9952 21.94 57.0818 21.6133 57.2552 21.4L62.5552 13.58V13.5H57.7752C57.4952 13.5 57.3552 13.36 57.3552 13.08V11.56C57.3552 11.28 57.4952 11.14 57.7752 11.14H64.8752C65.1418 11.14 65.2752 11.28 65.2752 11.56V13.28C65.2752 13.68 65.1752 14.0267 64.9752 14.32L59.9952 21.56V21.64H65.0752C65.3418 21.64 65.4752 21.7667 65.4752 22.02V23.54C65.4752 23.8467 65.3418 24 65.0752 24H57.4152C57.1352 24 56.9952 23.86 56.9952 23.58Z" fill="white"/>
</svg>
