<svg width="487" height="404" viewBox="0 0 487 404" fill="none" xmlns="http://www.w3.org/2000/svg">
<path d="M487 65.003H0V404H487V65.003Z" fill="#F0F0F0"/>
<path d="M273.937 65H213.062V202.715H0V266.277H213.062V403.992H273.937V266.277H487V202.715H273.937V65Z" fill="#D80027"/>
<path d="M374.557 293.451L487 358.677V293.451H374.557Z" fill="#0052B4"/>
<path d="M296.435 293.451L487 403.992V372.734L350.323 293.451H296.435Z" fill="#0052B4"/>
<path d="M436.24 403.992L296.435 322.888V403.992H436.24Z" fill="#0052B4"/>
<path d="M296.435 293.451L487 403.992V372.734L350.323 293.451H296.435Z" fill="#F0F0F0"/>
<path d="M296.435 293.451L487 403.992V372.734L350.323 293.451H296.435Z" fill="#D80027"/>
<path d="M85.9298 293.449L0 343.295V293.449H85.9298Z" fill="#0052B4"/>
<path d="M190.565 307.506V403.991H24.2462L190.565 307.506Z" fill="#0052B4"/>
<path d="M136.677 293.451L0 372.734V403.992L190.565 293.451H136.677Z" fill="#D80027"/>
<path d="M112.443 175.541L0 110.315V175.541H112.443Z" fill="#0052B4"/>
<path d="M190.565 175.541L0 65V96.2582L136.677 175.541H190.565Z" fill="#0052B4"/>
<path d="M50.7603 65L190.565 146.104V65H50.7603Z" fill="#0052B4"/>
<path d="M190.565 175.541L0 65V96.2582L136.677 175.541H190.565Z" fill="#F0F0F0"/>
<path d="M190.565 175.541L0 65V96.2582L136.677 175.541H190.565Z" fill="#D80027"/>
<path d="M401.07 175.543L487 125.697V175.543H401.07Z" fill="#0052B4"/>
<path d="M296.435 161.486V65.001H462.754L296.435 161.486Z" fill="#0052B4"/>
<path d="M350.323 175.541L487 96.2582V65L296.435 175.541H350.323Z" fill="#D80027"/>
<rect x="1.5" y="66.5" width="484" height="336" stroke="black" stroke-width="3"/>
</svg>
