<svg width="487" height="542" viewBox="0 0 487 542" fill="none" xmlns="http://www.w3.org/2000/svg">
<path d="M454.762 128.637C451.183 122.004 444.172 117.495 436.104 117.495C425.034 117.495 187.226 117.495 166.906 117.495L140.692 73.5566H125.978L125.959 73.5195C123.218 68.2828 117.793 65 111.88 65H15.8897C7.11402 65.001 0 72.1116 0 80.8832V144.519L11.2749 158.267V424.534C14.2328 426.103 17.6038 427 21.186 427H476V128.637H454.762Z" fill="#FEA613"/>
<path d="M475.763 427V216.443L487 202.673C487 167.928 487 142.323 487 139.142C487 127.465 477.547 118 465.885 118H436C447.662 118 457.115 127.465 457.115 139.142V427H475.763Z" fill="#FE9901"/>
<path d="M126.06 73.6014L149.053 118H179L156.008 73.6014C153.27 68.3144 147.852 65 141.946 65H112C117.905 65.001 123.323 68.3144 126.06 73.6014V73.6014Z" fill="#FE9901"/>
<path d="M170.82 181.497L145.59 135.628H124.937C121.977 131.505 117.181 129 112.011 129H15.9081C7.12226 129 0 136.111 0 144.883V433.823C0 445.519 9.49571 455 21.2105 455H436.61C441.923 455 446.768 453.036 450.49 449.813H469V186.947H450.778C447.021 183.571 442.065 181.498 436.612 181.498L170.82 181.497Z" fill="#FEC165"/>
<path d="M465.885 181H436C447.661 181 457.115 190.498 457.115 202.216V433.784C457.115 445.502 447.662 455 436 455H465.885C477.546 455 487 445.502 487 433.784V202.216C487 190.498 477.547 181 465.885 181V181Z" fill="#FDB441"/>
<path d="M126.061 137.439L149.053 181H179L156.008 137.439C153.27 132.252 147.853 129 141.947 129H112C117.906 129.001 123.324 132.252 126.061 137.439Z" fill="#FDB441"/>
<path d="M407.741 540L427.837 535.216L443 508.675L262.668 326L228.2 360.634C227.933 360.903 227.933 361.338 228.2 361.606C413.966 548.267 401.807 536.931 407.741 540V540Z" fill="#60B7FF"/>
<path d="M442.247 491.279L269.162 319.2C268.893 318.933 268.458 318.933 268.189 319.2L255 332.313L414.896 491.279C426.568 502.883 426.568 521.696 414.896 533.3C412.645 535.538 410.123 537.339 407.438 538.714C418.681 544.468 432.825 542.667 442.247 533.3C453.918 521.696 453.918 502.883 442.247 491.279V491.279Z" fill="#26A6FE"/>
<path d="M171.573 263.339C124.142 310.849 124.142 387.88 171.573 435.391C194.792 458.648 225.072 470.513 255.5 471C285.928 470.513 316.209 458.648 339.427 435.391C386.858 387.88 386.858 310.849 339.427 263.339C292.671 216.504 218.894 215.938 171.573 263.339Z" fill="#0055A3"/>
<path d="M343.437 262.728C316.269 235.428 279.428 223.777 244 227.761C344.087 239.016 388.548 362.651 316.275 435.272C296.027 455.619 270.405 467.269 244 470.239C279.428 474.223 316.269 462.572 343.437 435.272C390.854 387.625 390.854 310.374 343.437 262.728Z" fill="#004281"/>
<path d="M198.402 289.168C165.866 321.81 165.866 374.922 198.402 407.565C214.176 423.389 234.745 431.519 255.46 432C328.621 430.3 364.283 341.101 312.518 289.169C280.72 257.267 230.844 256.622 198.402 289.168V289.168Z" fill="#D8ECFE"/>
<path d="M317.335 289.414C297.404 269.668 269.9 261.912 244 266.102C311.534 277.025 338.425 359.559 289.946 407.586C276.992 420.42 260.834 428.176 244 430.898C269.9 435.088 297.404 427.332 317.335 407.586C350.221 375.007 350.222 321.995 317.335 289.414Z" fill="#B3DAFE"/>
</svg>
