<svg id="Capa_1" enable-background="new 0 0 511.875 511.875" height="512" viewBox="0 0 511.875 511.875" width="512" xmlns="http://www.w3.org/2000/svg"><g><path d="m171.038 438.141c-68.824-3.894-123.624-61.115-123.624-130.903 0-72.3 58.816-131.121 131.11-131.121 32.333 0 63.38 11.864 87.423 33.406 27.767 24.836 43.697 60.455 43.697 97.714 0 31.247-11.209 61.336-31.208 84.889 14.184 9.19 30.468 14.68 47.439 15.932 20.424-29.732 31.183-64.424 31.183-100.821 0-38.994-12.345-76.032-35.698-107.109-18.557-24.703-43.254-44.259-71.424-56.557-15.613-6.829-31.938-11.321-48.753-13.44 33.988-25.02 46.985-45.99 46.985-64.28 0-21.948-17.792-39.74-39.74-39.74-11.926 0-22.616 5.26-29.9 13.578-7.284-8.318-17.975-13.578-29.9-13.578-21.948 0-39.74 17.792-39.74 39.74 0 18.293 13.001 39.266 47.001 64.291-87.79 11.158-155.889 86.324-155.889 177.096 0 98.438 80.085 178.524 178.524 178.524 13.61 0 26.971-1.51 39.978-4.487-17.871-11.817-33.921-26.363-47.464-43.134z"/><path d="m333.352 128.715c-13.611 0-26.972 1.51-39.979 4.486 17.871 11.818 33.921 26.364 47.465 43.135 68.824 3.894 123.624 61.115 123.624 130.902 0 72.3-58.815 131.121-131.109 131.121-32.332 0-63.38-11.864-87.424-33.406-27.767-24.837-43.697-60.456-43.697-97.715 0-31.247 11.209-61.337 31.208-84.889-14.184-9.19-30.468-14.68-47.439-15.932-20.425 29.732-31.183 64.423-31.183 100.82 0 38.995 12.344 76.032 35.699 107.11 18.556 24.703 43.253 44.259 71.423 56.557 22.544 9.86 46.567 14.857 71.413 14.857 98.438 0 178.523-80.085 178.523-178.524-.001-98.437-80.086-178.522-178.524-178.522z"/></g></svg>