<svg width="34" height="34" viewBox="0 0 34 34" fill="none" xmlns="http://www.w3.org/2000/svg">
<circle cx="17" cy="17" r="17" fill="#BB9847"/>
<path d="M26 15C26 22 17 28 17 28C17 28 8 22 8 15C8 12.6131 8.94821 10.3239 10.636 8.63604C12.3239 6.94821 14.6131 6 17 6C19.3869 6 21.6761 6.94821 23.364 8.63604C25.0518 10.3239 26 12.6131 26 15Z" stroke="white" stroke-width="2" stroke-linecap="round" stroke-linejoin="round"/>
<path d="M17 18C18.6569 18 20 16.6569 20 15C20 13.3431 18.6569 12 17 12C15.3431 12 14 13.3431 14 15C14 16.6569 15.3431 18 17 18Z" stroke="white" stroke-width="2" stroke-linecap="round" stroke-linejoin="round"/>
</svg>
