<svg width="34" height="34" viewBox="0 0 34 34" fill="none" xmlns="http://www.w3.org/2000/svg">
<circle cx="17" cy="17" r="17" fill="#BB9847"/>
<path d="M22 7H12C9.23858 7 7 9.23858 7 12V22C7 24.7614 9.23858 27 12 27H22C24.7614 27 27 24.7614 27 22V12C27 9.23858 24.7614 7 22 7Z" stroke="white" stroke-width="2" stroke-linecap="round" stroke-linejoin="round"/>
<path d="M21 16.3701C21.1234 17.2023 20.9812 18.0523 20.5937 18.7991C20.2062 19.5459 19.5931 20.1515 18.8416 20.5297C18.0901 20.908 17.2384 21.0397 16.4077 20.906C15.5771 20.7723 14.8097 20.3801 14.2148 19.7852C13.6199 19.1903 13.2277 18.4229 13.094 17.5923C12.9604 16.7616 13.092 15.91 13.4703 15.1584C13.8485 14.4069 14.4541 13.7938 15.2009 13.4063C15.9477 13.0188 16.7977 12.8766 17.63 13.0001C18.4789 13.1259 19.2648 13.5215 19.8716 14.1284C20.4785 14.7352 20.8741 15.5211 21 16.3701Z" stroke="white" stroke-width="2" stroke-linecap="round" stroke-linejoin="round"/>
<path d="M22.5 11.5H22.51" stroke="white" stroke-width="2" stroke-linecap="round" stroke-linejoin="round"/>
</svg>
