<svg width="63" height="127" viewBox="0 0 63 127" fill="none" xmlns="http://www.w3.org/2000/svg">
<path fill-rule="evenodd" clip-rule="evenodd" d="M0.500122 63.956C0.500122 81.2632 14.4912 95.2933 31.7501 95.2933H39.2673L63 126.959V0.953186L39.2673 32.6187H31.7501C14.4912 32.6187 0.500122 46.6489 0.500122 63.956ZM9.15666 63.9559C9.15666 51.5185 19.2684 41.4295 31.7499 41.4295C44.2314 41.4295 54.3431 51.5185 54.3431 63.9559C54.3431 76.3933 44.2314 86.4823 31.7499 86.4823C19.2684 86.4823 9.15666 76.3933 9.15666 63.9559ZM31.7499 38.6883C17.7617 38.6883 6.41543 49.9974 6.41543 63.9559C6.41543 77.9144 17.7617 89.2235 31.7499 89.2235C45.7381 89.2235 57.0844 77.9144 57.0844 63.9559C57.0844 49.9974 45.7381 38.6883 31.7499 38.6883ZM30.7821 53.4266L21.1965 62.9854C20.6605 63.5199 20.6593 64.3877 21.1938 64.9237C21.7283 65.4597 22.5962 65.4609 23.1322 64.9264L30.3793 57.6995V73.5147C30.3793 74.2717 30.9929 74.8853 31.7499 74.8853C32.5069 74.8853 33.1205 74.2717 33.1205 73.5147V57.6995L40.3676 64.9264C40.9036 65.4609 41.7714 65.4597 42.306 64.9237C42.8405 64.3877 42.8393 63.5199 42.3032 62.9854L32.7177 53.4266C32.1828 52.8931 31.317 52.8931 30.7821 53.4266Z" fill="#4B92E3"/>
</svg>
