<svg width="92" height="92" viewBox="0 0 92 92" fill="none" xmlns="http://www.w3.org/2000/svg">
<rect x="1" y="1" width="90" height="90" rx="11" fill="#ED1D24" stroke="#ED1D24" stroke-width="2"/>
<path d="M75.8245 30.7984C75.127 28.183 72.8603 26.0906 70.2449 25.3932C64.3167 23.824 28.5727 23.6496 21.7727 25.3932C19.1573 26.0906 16.8906 28.183 16.1931 30.7984C14.6239 37.4241 14.4495 54.3371 16.1931 61.1371C16.8906 63.7525 19.1573 65.8449 21.7727 66.5423C28.0497 68.2859 63.7936 68.2859 70.2449 66.5423C72.8603 65.8449 75.127 63.7525 75.8245 61.1371C77.3937 54.8602 77.3937 37.2497 75.8245 30.7984Z" fill="white"/>
<path d="M39.7318 36.7268V55.209L55.9474 45.9679" fill="#ED1D24"/>
</svg>
