<svg width="92" height="92" viewBox="0 0 92 92" fill="none" xmlns="http://www.w3.org/2000/svg">
<rect x="1" y="1" width="90" height="90" rx="11" fill="#1769FF" stroke="#1769FF" stroke-width="2"/>
<path d="M70.916 31.6633H53.4746V26.45H70.916V31.6633ZM75.2166 57.7299C74.1153 61.1108 70.1611 65.5499 62.5068 65.5499C54.8475 65.5499 48.6433 61.043 48.6433 50.7571C48.6433 40.5651 54.4363 35.3257 62.2626 35.3257C69.9418 35.3257 74.6311 39.9707 75.6551 46.8628C75.8495 48.1817 75.9267 49.9595 75.8918 52.441H55.8915C56.2154 60.811 64.5698 61.0743 67.3231 57.7299H75.2166ZM56.0659 47.3033H68.4369C68.1752 43.2708 65.6064 41.5191 62.2651 41.5191C58.6123 41.5191 56.5916 43.521 56.0659 47.3033ZM32.2109 65.5187H16.1V26.5047H33.4243C47.0686 26.7158 47.3277 40.6954 40.2016 44.5063C48.8252 47.7907 49.1142 65.5187 32.2109 65.5187ZM23.5749 42.0899H32.5049C38.754 42.0899 39.7456 34.27 31.7275 34.27H23.5749V42.0899ZM32.024 49.91H23.5749V57.7717H31.8995C39.5114 57.7717 39.0455 49.91 32.024 49.91Z" fill="white"/>
</svg>
