<svg width="92" height="92" viewBox="0 0 92 92" fill="none" xmlns="http://www.w3.org/2000/svg">
<rect x="1" y="1" width="90" height="90" rx="11" fill="#2867B2" stroke="#2867B2" stroke-width="2"/>
<path d="M31.4381 24.925C31.4381 27.8942 29.0446 30.3 26.0906 30.3C23.1365 30.3 20.7431 27.8942 20.7431 24.925C20.7431 21.958 23.1365 19.55 26.0906 19.55C29.0446 19.55 31.4381 21.958 31.4381 24.925ZM31.4812 34.6H20.7V69.0001H31.4812V34.6ZM48.6924 34.6H37.9801V69.0001H48.6945V50.9422C48.6945 40.9017 61.6946 40.0804 61.6946 50.9422V69.0001H72.4499V47.2184C72.4499 30.2764 53.2119 30.8934 48.6924 39.2333V34.6Z" fill="white"/>
</svg>
