<svg width="92" height="92" viewBox="0 0 92 92" fill="none" xmlns="http://www.w3.org/2000/svg">
<rect width="92" height="92" rx="12" fill="#E74D89"/>
<path d="M46.0317 74.9336C30.0538 74.9336 17.0634 61.9658 17.0634 46.0106C17.0634 30.0328 30.0538 17.0649 46.0317 17.0649C62.0095 17.0649 75 30.0328 75 45.988C75 61.9432 62.0095 74.9336 46.0317 74.9336ZM70.451 49.9485C69.6137 49.6769 62.8016 47.6627 55.039 48.8848C58.2753 57.7564 59.5879 64.9984 59.8369 66.4921C65.4042 62.7579 69.3647 56.8285 70.451 49.9485ZM55.6953 68.7779C55.3332 66.6053 53.8848 59.0463 50.4222 50.039C50.3769 50.0616 50.309 50.0843 50.2637 50.0843C36.3001 54.95 31.2986 64.6137 30.8459 65.519C35.0328 68.7779 40.3059 70.7242 46.0317 70.7242C49.449 70.7468 52.7306 70.0452 55.6953 68.7779ZM27.6549 62.5542C28.2207 61.6037 35.0101 50.3785 47.7743 46.2369C48.0911 46.1238 48.4306 46.0332 48.7474 45.9427C48.1364 44.5396 47.4574 43.1364 46.7332 41.7559C34.3764 45.4448 22.3818 45.2864 21.2954 45.2638C21.2954 45.5127 21.2728 45.7617 21.2728 46.0106C21.2954 52.3701 23.6944 58.1637 27.6549 62.5542ZM21.816 40.9638C22.9249 40.9864 33.1091 41.0317 44.6964 37.9538C40.6001 30.6665 36.1643 24.556 35.5306 23.6733C28.5828 26.9323 23.4228 33.3143 21.816 40.9638ZM40.238 21.9986C40.9169 22.9039 45.4206 29.0144 49.4716 36.4601C58.2753 33.1559 61.9868 28.177 62.4395 27.5433C58.0716 23.6733 52.3232 21.3197 46.0317 21.3197C44.0401 21.3197 42.0938 21.5686 40.238 21.9986ZM65.1779 30.3949C64.6574 31.0965 60.5158 36.4149 51.3727 40.1491C51.9385 41.3259 52.5043 42.5254 53.0248 43.7248C53.2058 44.1548 53.3869 44.5848 53.5679 44.9922C61.8058 43.9511 69.9758 45.6259 70.7905 45.7843C70.7226 39.968 68.6405 34.6043 65.1779 30.3949Z" fill="white"/>
</svg>
