<svg width="92" height="92" viewBox="0 0 92 92" fill="none" xmlns="http://www.w3.org/2000/svg">
<rect x="1" y="1" width="90" height="90" rx="11" fill="#D0D3D4" stroke="#D0D3D4" stroke-width="2"/>
<path d="M46 16C29.435 16 16 29.5425 16 46.2458C16 59.6094 24.595 70.9465 36.5175 74.9465C38.015 75.2263 38.5 74.2886 38.5 73.4922V67.8614C30.155 69.6913 28.4175 64.2924 28.4175 64.2924C27.0525 60.7965 25.085 59.8664 25.085 59.8664C22.3625 57.9887 25.2925 58.029 25.2925 58.029C28.305 58.2407 29.89 61.1469 29.89 61.1469C32.565 65.7694 36.9075 64.4336 38.62 63.6598C38.8875 61.7064 39.665 60.3705 40.525 59.6169C33.8625 58.8482 26.8575 56.2546 26.8575 44.6679C26.8575 41.3636 28.03 38.6667 29.9475 36.5495C29.6375 35.7858 28.61 32.7083 30.24 28.5444C30.24 28.5444 32.76 27.7328 38.4925 31.6446C40.885 30.9742 43.45 30.639 46 30.6264C48.55 30.639 51.1175 30.9742 53.515 31.6446C59.2425 27.7328 61.7575 28.5444 61.7575 28.5444C63.39 32.7108 62.3625 35.7883 62.0525 36.5495C63.9775 38.6667 65.14 41.3661 65.14 44.6679C65.14 56.2848 58.1225 58.8431 51.4425 59.5917C52.5175 60.5293 53.5 62.3693 53.5 65.1922V73.4922C53.5 74.2962 53.98 75.2414 55.5025 74.944C67.415 70.9389 76 59.6043 76 46.2458C76 29.5425 62.5675 16 46 16Z" fill="black"/>
</svg>
