<svg width="565" height="228" viewBox="0 0 565 228" fill="none" xmlns="http://www.w3.org/2000/svg">
<g filter="url(#filter0_dddddd)">
<path fill-rule="evenodd" clip-rule="evenodd" d="M96.0002 0H113C121.837 0 129 7.16344 129 16V42C129 50.8366 121.837 58 113 58H96.0002C87.1637 58 80.0002 50.8366 80.0002 42V16C80.0002 7.16344 87.1637 0 96.0002 0ZM96.0002 8C91.582 8 88.0002 11.5817 88.0002 16V42C88.0002 46.4183 91.582 50 96.0002 50H113C117.419 50 121 46.4183 121 42V16C121 11.5817 117.419 8 113 8H96.0002Z" fill="#03B7F2"/>
<path fill-rule="evenodd" clip-rule="evenodd" d="M112 20.9998H130C138.837 20.9998 146 28.1632 146 36.9998V62.9998C146 71.8363 138.837 78.9998 130 78.9998H112C103.163 78.9998 96 71.8363 96 62.9998V36.9998C96 28.1632 103.163 20.9998 112 20.9998ZM112 28.9998C107.582 28.9998 104 32.5815 104 36.9998V62.9998C104 67.418 107.582 70.9998 112 70.9998H130C134.418 70.9998 138 67.418 138 62.9998V36.9998C138 32.5815 134.418 28.9998 130 28.9998H112Z" fill="#03B7F2"/>
<path d="M121 18.9998H129V31.9998H121V18.9998Z" fill="#03B7F2"/>
</g>
<path fill-rule="evenodd" clip-rule="evenodd" d="M96.0002 0H113C121.837 0 129 7.16344 129 16V42C129 50.8366 121.837 58 113 58H96.0002C87.1637 58 80.0002 50.8366 80.0002 42V16C80.0002 7.16344 87.1637 0 96.0002 0ZM96.0002 8C91.582 8 88.0002 11.5817 88.0002 16V42C88.0002 46.4183 91.582 50 96.0002 50H113C117.419 50 121 46.4183 121 42V16C121 11.5817 117.419 8 113 8H96.0002Z" fill="#03B7F2"/>
<path fill-rule="evenodd" clip-rule="evenodd" d="M112 20.9998H130C138.837 20.9998 146 28.1632 146 36.9998V62.9998C146 71.8363 138.837 78.9998 130 78.9998H112C103.163 78.9998 96 71.8363 96 62.9998V36.9998C96 28.1632 103.163 20.9998 112 20.9998ZM112 28.9998C107.582 28.9998 104 32.5815 104 36.9998V62.9998C104 67.418 107.582 70.9998 112 70.9998H130C134.418 70.9998 138 67.418 138 62.9998V36.9998C138 32.5815 134.418 28.9998 130 28.9998H112Z" fill="#E6AF2E"/>
<path d="M121 18.9998H129V31.9998H121V18.9998Z" fill="#03B7F2"/>
<g filter="url(#filter1_dddddd)">
<path d="M189.12 65.3198C185.387 65.3198 181.92 64.7598 178.72 63.6398C175.573 62.4664 173.12 60.9998 171.36 59.2398C170.56 58.3864 170.213 57.4264 170.32 56.3598C170.48 55.2398 171.013 54.3331 171.92 53.6398C172.987 52.7864 174.027 52.4398 175.04 52.5998C176.107 52.7064 177.013 53.1598 177.76 53.9598C178.667 54.9731 180.107 55.9331 182.08 56.8398C184.107 57.6931 186.347 58.1198 188.8 58.1198C191.893 58.1198 194.24 57.6131 195.84 56.5998C197.493 55.5864 198.347 54.2798 198.4 52.6798C198.453 51.0798 197.68 49.6931 196.08 48.5198C194.533 47.3464 191.68 46.3864 187.52 45.6398C182.133 44.5731 178.213 42.9731 175.76 40.8398C173.36 38.7064 172.16 36.0931 172.16 32.9998C172.16 30.2798 172.96 28.0398 174.56 26.2798C176.16 24.4664 178.213 23.1331 180.72 22.2798C183.227 21.3731 185.84 20.9198 188.56 20.9198C192.08 20.9198 195.2 21.4798 197.92 22.5998C200.64 23.7198 202.8 25.2664 204.4 27.2398C205.147 28.0931 205.493 28.9998 205.44 29.9598C205.387 30.8664 204.933 31.6398 204.08 32.2798C203.227 32.8664 202.213 33.0531 201.04 32.8398C199.867 32.6264 198.88 32.1464 198.08 31.3998C196.747 30.1198 195.307 29.2398 193.76 28.7598C192.213 28.2798 190.427 28.0398 188.4 28.0398C186.053 28.0398 184.053 28.4398 182.4 29.2398C180.8 30.0398 180 31.2131 180 32.7598C180 33.7198 180.24 34.5998 180.72 35.3998C181.253 36.1464 182.267 36.8398 183.76 37.4798C185.253 38.0664 187.44 38.6531 190.32 39.2398C196.347 40.4131 200.507 42.0931 202.8 44.2798C205.147 46.4131 206.32 49.0531 206.32 52.1998C206.32 54.6531 205.653 56.8664 204.32 58.8398C203.04 60.8131 201.12 62.3864 198.56 63.5598C196.053 64.7331 192.907 65.3198 189.12 65.3198Z" fill="#ECECEC"/>
<path d="M234.878 65.3198C230.984 65.3198 227.491 64.3598 224.398 62.4398C221.304 60.4664 218.851 57.8264 217.038 54.5198C215.278 51.1598 214.398 47.3731 214.398 43.1598C214.398 38.9464 215.358 35.1598 217.278 31.7998C219.251 28.4398 221.891 25.7998 225.198 23.8798C228.558 21.9064 232.318 20.9198 236.478 20.9198C240.638 20.9198 244.371 21.9064 247.678 23.8798C250.984 25.7998 253.598 28.4398 255.518 31.7998C257.491 35.1598 258.478 38.9464 258.478 43.1598V60.9998C258.478 62.1731 258.078 63.1598 257.278 63.9598C256.531 64.7064 255.571 65.0798 254.398 65.0798C253.224 65.0798 252.238 64.7064 251.438 63.9598C250.691 63.1598 250.318 62.1731 250.318 60.9998V58.0398C248.451 60.2798 246.184 62.0664 243.518 63.3998C240.904 64.6798 238.024 65.3198 234.878 65.3198ZM236.478 58.1198C239.198 58.1198 241.624 57.4798 243.758 56.1998C245.891 54.8664 247.571 53.0798 248.798 50.8398C250.024 48.5464 250.638 45.9864 250.638 43.1598C250.638 40.2798 250.024 37.7198 248.798 35.4798C247.571 33.1864 245.891 31.3998 243.758 30.1198C241.624 28.7864 239.198 28.1198 236.478 28.1198C233.811 28.1198 231.384 28.7864 229.198 30.1198C227.064 31.3998 225.358 33.1864 224.078 35.4798C222.851 37.7198 222.238 40.2798 222.238 43.1598C222.238 45.9864 222.851 48.5464 224.078 50.8398C225.358 53.0798 227.064 54.8664 229.198 56.1998C231.384 57.4798 233.811 58.1198 236.478 58.1198Z" fill="#ECECEC"/>
<path d="M286.542 64.9998C283.875 64.9998 281.475 64.3331 279.342 62.9998C277.209 61.6131 275.529 59.7464 274.302 57.3998C273.075 55.0531 272.462 52.4131 272.462 49.4798V29.7198H268.782C267.662 29.7198 266.755 29.3998 266.062 28.7598C265.369 28.1198 265.022 27.3198 265.022 26.3598C265.022 25.2931 265.369 24.4398 266.062 23.7998C266.755 23.1598 267.662 22.8398 268.782 22.8398H272.462V11.3198C272.462 10.1464 272.835 9.18644 273.582 8.43978C274.329 7.69311 275.289 7.31978 276.462 7.31978C277.635 7.31978 278.595 7.69311 279.342 8.43978C280.089 9.18644 280.462 10.1464 280.462 11.3198V22.8398H287.262C288.382 22.8398 289.289 23.1598 289.982 23.7998C290.675 24.4398 291.022 25.2931 291.022 26.3598C291.022 27.3198 290.675 28.1198 289.982 28.7598C289.289 29.3998 288.382 29.7198 287.262 29.7198H280.462V49.4798C280.462 51.6131 281.049 53.3998 282.222 54.8398C283.395 56.2798 284.835 56.9998 286.542 56.9998H289.262C290.222 56.9998 291.022 57.3731 291.662 58.1198C292.355 58.8664 292.702 59.8264 292.702 60.9998C292.702 62.1731 292.249 63.1331 291.342 63.8798C290.489 64.6264 289.369 64.9998 287.982 64.9998H286.542Z" fill="#ECECEC"/>
<path d="M321.131 65.3998C317.451 65.3998 314.145 64.6264 311.211 63.0798C308.331 61.4798 306.038 59.1598 304.331 56.1198C302.678 53.0798 301.851 49.3464 301.851 44.9198V25.2398C301.851 24.0664 302.225 23.1064 302.971 22.3598C303.771 21.5598 304.758 21.1598 305.931 21.1598C307.105 21.1598 308.065 21.5598 308.811 22.3598C309.611 23.1064 310.011 24.0664 310.011 25.2398V44.9198C310.011 49.4531 311.211 52.7864 313.611 54.9198C316.065 56.9998 319.105 58.0398 322.731 58.0398C325.025 58.0398 327.051 57.5864 328.811 56.6798C330.625 55.7731 332.065 54.5464 333.131 52.9998C334.198 51.4531 334.731 49.7198 334.731 47.7998V25.2398C334.731 24.0131 335.105 23.0264 335.851 22.2798C336.651 21.5331 337.638 21.1598 338.811 21.1598C340.038 21.1598 341.025 21.5331 341.771 22.2798C342.518 23.0264 342.891 24.0131 342.891 25.2398V60.9198C342.891 62.0931 342.518 63.0798 341.771 63.8798C341.025 64.6264 340.038 64.9998 338.811 64.9998C337.638 64.9998 336.651 64.6264 335.851 63.8798C335.105 63.0798 334.731 62.0931 334.731 60.9198V60.0398C333.078 61.6931 331.078 62.9998 328.731 63.9598C326.385 64.9198 323.851 65.3998 321.131 65.3998Z" fill="#ECECEC"/>
<path d="M361.183 64.9998C360.009 64.9998 359.049 64.6531 358.303 63.9598C357.609 63.2131 357.263 62.2531 357.263 61.0798V6.43977C357.263 5.26644 357.609 4.33311 358.303 3.63978C359.049 2.89311 360.009 2.51978 361.183 2.51978C362.356 2.51978 363.289 2.89311 363.983 3.63978C364.729 4.33311 365.103 5.26644 365.103 6.43977V38.9998L384.543 21.6398C385.343 20.8931 386.223 20.5464 387.183 20.5998C388.196 20.6531 389.049 21.0798 389.743 21.8798C390.489 22.6798 390.836 23.5598 390.783 24.5198C390.729 25.4798 390.303 26.3331 389.503 27.0798L374.783 40.1998L390.303 59.2398C390.996 60.0931 391.289 61.0264 391.183 62.0398C391.129 62.9998 390.649 63.8531 389.743 64.5998C388.889 65.2931 387.929 65.5864 386.863 65.4798C385.849 65.4264 384.996 64.9731 384.303 64.1198L369.103 45.3198L365.103 48.8398V61.0798C365.103 62.2531 364.729 63.2131 363.983 63.9598C363.289 64.6531 362.356 64.9998 361.183 64.9998Z" fill="#ECECEC"/>
<path d="M413.209 64.9998C410.863 64.9998 408.783 64.3598 406.969 63.0798C405.156 61.7998 403.743 60.0664 402.729 57.8798C401.716 55.6398 401.209 53.0798 401.209 50.1998V6.51978C401.209 5.34644 401.583 4.38644 402.329 3.63978C403.076 2.89311 404.036 2.51978 405.209 2.51978C406.383 2.51978 407.343 2.89311 408.089 3.63978C408.836 4.38644 409.209 5.34644 409.209 6.51978V50.1998C409.209 52.1731 409.583 53.7998 410.329 55.0798C411.076 56.3598 412.036 56.9998 413.209 56.9998H415.209C416.276 56.9998 417.129 57.3731 417.769 58.1198C418.463 58.8664 418.809 59.8264 418.809 60.9998C418.809 62.1731 418.303 63.1331 417.289 63.8798C416.276 64.6264 414.969 64.9998 413.369 64.9998H413.209Z" fill="#ECECEC"/>
<path d="M431.674 64.9998C430.501 64.9998 429.514 64.6264 428.714 63.8798C427.967 63.0798 427.594 62.0931 427.594 60.9198V25.3198C427.594 24.0931 427.967 23.1064 428.714 22.3598C429.514 21.6131 430.501 21.2398 431.674 21.2398C432.901 21.2398 433.887 21.6131 434.634 22.3598C435.381 23.1064 435.754 24.0931 435.754 25.3198V60.9198C435.754 62.0931 435.381 63.0798 434.634 63.8798C433.887 64.6264 432.901 64.9998 431.674 64.9998ZM431.674 14.1198C430.234 14.1198 428.981 13.6131 427.914 12.5998C426.901 11.5331 426.394 10.2798 426.394 8.83978C426.394 7.39977 426.901 6.17311 427.914 5.15977C428.981 4.09311 430.234 3.55978 431.674 3.55978C433.114 3.55978 434.341 4.09311 435.354 5.15977C436.421 6.17311 436.954 7.39977 436.954 8.83978C436.954 10.2798 436.421 11.5331 435.354 12.5998C434.341 13.6131 433.114 14.1198 431.674 14.1198Z" fill="#ECECEC"/>
<path d="M454.854 64.9998C453.681 64.9998 452.721 64.6531 451.974 63.9598C451.281 63.2131 450.934 62.2531 450.934 61.0798V6.43977C450.934 5.26644 451.281 4.33311 451.974 3.63978C452.721 2.89311 453.681 2.51978 454.854 2.51978C456.028 2.51978 456.961 2.89311 457.654 3.63978C458.401 4.33311 458.774 5.26644 458.774 6.43977V38.9998L478.214 21.6398C479.014 20.8931 479.894 20.5464 480.854 20.5998C481.868 20.6531 482.721 21.0798 483.414 21.8798C484.161 22.6798 484.508 23.5598 484.454 24.5198C484.401 25.4798 483.974 26.3331 483.174 27.0798L468.454 40.1998L483.974 59.2398C484.668 60.0931 484.961 61.0264 484.854 62.0398C484.801 62.9998 484.321 63.8531 483.414 64.5998C482.561 65.2931 481.601 65.5864 480.534 65.4798C479.521 65.4264 478.668 64.9731 477.974 64.1198L462.774 45.3198L458.774 48.8398V61.0798C458.774 62.2531 458.401 63.2131 457.654 63.9598C456.961 64.6531 456.028 64.9998 454.854 64.9998Z" fill="#ECECEC"/>
</g>
<defs>
<filter id="filter0_dddddd" x="0.000244141" y="0" width="226" height="259" filterUnits="userSpaceOnUse" color-interpolation-filters="sRGB">
<feFlood flood-opacity="0" result="BackgroundImageFix"/>
<feColorMatrix in="SourceAlpha" type="matrix" values="0 0 0 0 0 0 0 0 0 0 0 0 0 0 0 0 0 0 127 0"/>
<feOffset dy="2.76726"/>
<feGaussianBlur stdDeviation="1.1069"/>
<feColorMatrix type="matrix" values="0 0 0 0 0 0 0 0 0 0 0 0 0 0 0 0 0 0 0.0196802 0"/>
<feBlend mode="normal" in2="BackgroundImageFix" result="effect1_dropShadow"/>
<feColorMatrix in="SourceAlpha" type="matrix" values="0 0 0 0 0 0 0 0 0 0 0 0 0 0 0 0 0 0 127 0"/>
<feOffset dy="6.6501"/>
<feGaussianBlur stdDeviation="2.66004"/>
<feColorMatrix type="matrix" values="0 0 0 0 0 0 0 0 0 0 0 0 0 0 0 0 0 0 0.0282725 0"/>
<feBlend mode="normal" in2="effect1_dropShadow" result="effect2_dropShadow"/>
<feColorMatrix in="SourceAlpha" type="matrix" values="0 0 0 0 0 0 0 0 0 0 0 0 0 0 0 0 0 0 127 0"/>
<feOffset dy="12.5216"/>
<feGaussianBlur stdDeviation="5.00862"/>
<feColorMatrix type="matrix" values="0 0 0 0 0 0 0 0 0 0 0 0 0 0 0 0 0 0 0.035 0"/>
<feBlend mode="normal" in2="effect2_dropShadow" result="effect3_dropShadow"/>
<feColorMatrix in="SourceAlpha" type="matrix" values="0 0 0 0 0 0 0 0 0 0 0 0 0 0 0 0 0 0 127 0"/>
<feOffset dy="22.3363"/>
<feGaussianBlur stdDeviation="8.93452"/>
<feColorMatrix type="matrix" values="0 0 0 0 0 0 0 0 0 0 0 0 0 0 0 0 0 0 0.0417275 0"/>
<feBlend mode="normal" in2="effect3_dropShadow" result="effect4_dropShadow"/>
<feColorMatrix in="SourceAlpha" type="matrix" values="0 0 0 0 0 0 0 0 0 0 0 0 0 0 0 0 0 0 127 0"/>
<feOffset dy="41.7776"/>
<feGaussianBlur stdDeviation="16.711"/>
<feColorMatrix type="matrix" values="0 0 0 0 0 0 0 0 0 0 0 0 0 0 0 0 0 0 0.0503198 0"/>
<feBlend mode="normal" in2="effect4_dropShadow" result="effect5_dropShadow"/>
<feColorMatrix in="SourceAlpha" type="matrix" values="0 0 0 0 0 0 0 0 0 0 0 0 0 0 0 0 0 0 127 0"/>
<feOffset dy="100"/>
<feGaussianBlur stdDeviation="40"/>
<feColorMatrix type="matrix" values="0 0 0 0 0 0 0 0 0 0 0 0 0 0 0 0 0 0 0.07 0"/>
<feBlend mode="normal" in2="effect5_dropShadow" result="effect6_dropShadow"/>
<feBlend mode="normal" in="SourceGraphic" in2="effect6_dropShadow" result="shape"/>
</filter>
<filter id="filter1_dddddd" x="90.3013" y="2.51978" width="474.575" height="242.981" filterUnits="userSpaceOnUse" color-interpolation-filters="sRGB">
<feFlood flood-opacity="0" result="BackgroundImageFix"/>
<feColorMatrix in="SourceAlpha" type="matrix" values="0 0 0 0 0 0 0 0 0 0 0 0 0 0 0 0 0 0 127 0"/>
<feOffset dy="2.76726"/>
<feGaussianBlur stdDeviation="1.1069"/>
<feColorMatrix type="matrix" values="0 0 0 0 0 0 0 0 0 0 0 0 0 0 0 0 0 0 0.0196802 0"/>
<feBlend mode="normal" in2="BackgroundImageFix" result="effect1_dropShadow"/>
<feColorMatrix in="SourceAlpha" type="matrix" values="0 0 0 0 0 0 0 0 0 0 0 0 0 0 0 0 0 0 127 0"/>
<feOffset dy="6.6501"/>
<feGaussianBlur stdDeviation="2.66004"/>
<feColorMatrix type="matrix" values="0 0 0 0 0 0 0 0 0 0 0 0 0 0 0 0 0 0 0.0282725 0"/>
<feBlend mode="normal" in2="effect1_dropShadow" result="effect2_dropShadow"/>
<feColorMatrix in="SourceAlpha" type="matrix" values="0 0 0 0 0 0 0 0 0 0 0 0 0 0 0 0 0 0 127 0"/>
<feOffset dy="12.5216"/>
<feGaussianBlur stdDeviation="5.00862"/>
<feColorMatrix type="matrix" values="0 0 0 0 0 0 0 0 0 0 0 0 0 0 0 0 0 0 0.035 0"/>
<feBlend mode="normal" in2="effect2_dropShadow" result="effect3_dropShadow"/>
<feColorMatrix in="SourceAlpha" type="matrix" values="0 0 0 0 0 0 0 0 0 0 0 0 0 0 0 0 0 0 127 0"/>
<feOffset dy="22.3363"/>
<feGaussianBlur stdDeviation="8.93452"/>
<feColorMatrix type="matrix" values="0 0 0 0 0 0 0 0 0 0 0 0 0 0 0 0 0 0 0.0417275 0"/>
<feBlend mode="normal" in2="effect3_dropShadow" result="effect4_dropShadow"/>
<feColorMatrix in="SourceAlpha" type="matrix" values="0 0 0 0 0 0 0 0 0 0 0 0 0 0 0 0 0 0 127 0"/>
<feOffset dy="41.7776"/>
<feGaussianBlur stdDeviation="16.711"/>
<feColorMatrix type="matrix" values="0 0 0 0 0 0 0 0 0 0 0 0 0 0 0 0 0 0 0.0503198 0"/>
<feBlend mode="normal" in2="effect4_dropShadow" result="effect5_dropShadow"/>
<feColorMatrix in="SourceAlpha" type="matrix" values="0 0 0 0 0 0 0 0 0 0 0 0 0 0 0 0 0 0 127 0"/>
<feOffset dy="100"/>
<feGaussianBlur stdDeviation="40"/>
<feColorMatrix type="matrix" values="0 0 0 0 0 0 0 0 0 0 0 0 0 0 0 0 0 0 0.07 0"/>
<feBlend mode="normal" in2="effect5_dropShadow" result="effect6_dropShadow"/>
<feBlend mode="normal" in="SourceGraphic" in2="effect6_dropShadow" result="shape"/>
</filter>
</defs>
</svg>
