<svg width="410" height="89" viewBox="0 0 410 89" fill="none" xmlns="http://www.w3.org/2000/svg">
<rect x="4" y="9" width="41" height="50" rx="12" stroke="#03B7F2" stroke-width="8"/>
<rect x="20" y="30" width="42" height="50" rx="12" stroke="#E6AF2E" stroke-width="8"/>
<rect x="41" y="24" width="8" height="13" fill="#03B7F2"/>
<path d="M109.12 70.32C105.387 70.32 101.92 69.76 98.72 68.64C95.5733 67.4667 93.12 66 91.36 64.24C90.56 63.3867 90.2133 62.4267 90.32 61.36C90.48 60.24 91.0133 59.3333 91.92 58.64C92.9867 57.7867 94.0267 57.44 95.04 57.6C96.1067 57.7067 97.0133 58.16 97.76 58.96C98.6667 59.9733 100.107 60.9333 102.08 61.84C104.107 62.6933 106.347 63.12 108.8 63.12C111.893 63.12 114.24 62.6133 115.84 61.6C117.493 60.5867 118.347 59.28 118.4 57.68C118.453 56.08 117.68 54.6933 116.08 53.52C114.533 52.3467 111.68 51.3867 107.52 50.64C102.133 49.5733 98.2133 47.9733 95.76 45.84C93.36 43.7067 92.16 41.0933 92.16 38C92.16 35.28 92.96 33.04 94.56 31.28C96.16 29.4667 98.2133 28.1333 100.72 27.28C103.227 26.3733 105.84 25.92 108.56 25.92C112.08 25.92 115.2 26.48 117.92 27.6C120.64 28.72 122.8 30.2667 124.4 32.24C125.147 33.0933 125.493 34 125.44 34.96C125.387 35.8667 124.933 36.64 124.08 37.28C123.227 37.8667 122.213 38.0533 121.04 37.84C119.867 37.6267 118.88 37.1467 118.08 36.4C116.747 35.12 115.307 34.24 113.76 33.76C112.213 33.28 110.427 33.04 108.4 33.04C106.053 33.04 104.053 33.44 102.4 34.24C100.8 35.04 100 36.2133 100 37.76C100 38.72 100.24 39.6 100.72 40.4C101.253 41.1467 102.267 41.84 103.76 42.48C105.253 43.0667 107.44 43.6533 110.32 44.24C116.347 45.4133 120.507 47.0933 122.8 49.28C125.147 51.4133 126.32 54.0533 126.32 57.2C126.32 59.6533 125.653 61.8667 124.32 63.84C123.04 65.8133 121.12 67.3867 118.56 68.56C116.053 69.7333 112.907 70.32 109.12 70.32ZM154.878 70.32C150.984 70.32 147.491 69.36 144.398 67.44C141.304 65.4667 138.851 62.8267 137.038 59.52C135.278 56.16 134.398 52.3733 134.398 48.16C134.398 43.9467 135.358 40.16 137.278 36.8C139.251 33.44 141.891 30.8 145.198 28.88C148.558 26.9067 152.318 25.92 156.478 25.92C160.638 25.92 164.371 26.9067 167.678 28.88C170.984 30.8 173.598 33.44 175.518 36.8C177.491 40.16 178.478 43.9467 178.478 48.16V66C178.478 67.1733 178.078 68.16 177.278 68.96C176.531 69.7067 175.571 70.08 174.398 70.08C173.224 70.08 172.238 69.7067 171.438 68.96C170.691 68.16 170.318 67.1733 170.318 66V63.04C168.451 65.28 166.184 67.0667 163.518 68.4C160.904 69.68 158.024 70.32 154.878 70.32ZM156.478 63.12C159.198 63.12 161.624 62.48 163.758 61.2C165.891 59.8667 167.571 58.08 168.798 55.84C170.024 53.5467 170.638 50.9867 170.638 48.16C170.638 45.28 170.024 42.72 168.798 40.48C167.571 38.1867 165.891 36.4 163.758 35.12C161.624 33.7867 159.198 33.12 156.478 33.12C153.811 33.12 151.384 33.7867 149.198 35.12C147.064 36.4 145.358 38.1867 144.078 40.48C142.851 42.72 142.238 45.28 142.238 48.16C142.238 50.9867 142.851 53.5467 144.078 55.84C145.358 58.08 147.064 59.8667 149.198 61.2C151.384 62.48 153.811 63.12 156.478 63.12ZM206.542 70C203.875 70 201.475 69.3333 199.342 68C197.209 66.6133 195.529 64.7467 194.302 62.4C193.075 60.0533 192.462 57.4133 192.462 54.48V34.72H188.782C187.662 34.72 186.755 34.4 186.062 33.76C185.369 33.12 185.022 32.32 185.022 31.36C185.022 30.2933 185.369 29.44 186.062 28.8C186.755 28.16 187.662 27.84 188.782 27.84H192.462V16.32C192.462 15.1467 192.835 14.1867 193.582 13.44C194.329 12.6933 195.289 12.32 196.462 12.32C197.635 12.32 198.595 12.6933 199.342 13.44C200.089 14.1867 200.462 15.1467 200.462 16.32V27.84H207.262C208.382 27.84 209.289 28.16 209.982 28.8C210.675 29.44 211.022 30.2933 211.022 31.36C211.022 32.32 210.675 33.12 209.982 33.76C209.289 34.4 208.382 34.72 207.262 34.72H200.462V54.48C200.462 56.6133 201.049 58.4 202.222 59.84C203.395 61.28 204.835 62 206.542 62H209.262C210.222 62 211.022 62.3733 211.662 63.12C212.355 63.8667 212.702 64.8267 212.702 66C212.702 67.1733 212.249 68.1333 211.342 68.88C210.489 69.6267 209.369 70 207.982 70H206.542ZM241.131 70.4C237.451 70.4 234.145 69.6267 231.211 68.08C228.331 66.48 226.038 64.16 224.331 61.12C222.678 58.08 221.851 54.3467 221.851 49.92V30.24C221.851 29.0667 222.225 28.1067 222.971 27.36C223.771 26.56 224.758 26.16 225.931 26.16C227.105 26.16 228.065 26.56 228.811 27.36C229.611 28.1067 230.011 29.0667 230.011 30.24V49.92C230.011 54.4533 231.211 57.7867 233.611 59.92C236.065 62 239.105 63.04 242.731 63.04C245.025 63.04 247.051 62.5867 248.811 61.68C250.625 60.7733 252.065 59.5467 253.131 58C254.198 56.4533 254.731 54.72 254.731 52.8V30.24C254.731 29.0133 255.105 28.0267 255.851 27.28C256.651 26.5333 257.638 26.16 258.811 26.16C260.038 26.16 261.025 26.5333 261.771 27.28C262.518 28.0267 262.891 29.0133 262.891 30.24V65.92C262.891 67.0933 262.518 68.08 261.771 68.88C261.025 69.6267 260.038 70 258.811 70C257.638 70 256.651 69.6267 255.851 68.88C255.105 68.08 254.731 67.0933 254.731 65.92V65.04C253.078 66.6933 251.078 68 248.731 68.96C246.385 69.92 243.851 70.4 241.131 70.4ZM281.183 70C280.009 70 279.049 69.6533 278.303 68.96C277.609 68.2133 277.263 67.2533 277.263 66.08V11.44C277.263 10.2667 277.609 9.33333 278.303 8.64C279.049 7.89333 280.009 7.52 281.183 7.52C282.356 7.52 283.289 7.89333 283.983 8.64C284.729 9.33333 285.103 10.2667 285.103 11.44V44L304.543 26.64C305.343 25.8933 306.223 25.5467 307.183 25.6C308.196 25.6533 309.049 26.08 309.743 26.88C310.489 27.68 310.836 28.56 310.783 29.52C310.729 30.48 310.303 31.3333 309.503 32.08L294.783 45.2L310.303 64.24C310.996 65.0933 311.289 66.0267 311.182 67.04C311.129 68 310.649 68.8533 309.743 69.6C308.889 70.2933 307.929 70.5867 306.863 70.48C305.849 70.4267 304.996 69.9733 304.303 69.12L289.103 50.32L285.103 53.84V66.08C285.103 67.2533 284.729 68.2133 283.983 68.96C283.289 69.6533 282.356 70 281.183 70ZM333.209 70C330.863 70 328.783 69.36 326.969 68.08C325.156 66.8 323.743 65.0667 322.729 62.88C321.716 60.64 321.209 58.08 321.209 55.2V11.52C321.209 10.3467 321.583 9.38667 322.329 8.64C323.076 7.89333 324.036 7.52 325.209 7.52C326.383 7.52 327.343 7.89333 328.089 8.64C328.836 9.38667 329.209 10.3467 329.209 11.52V55.2C329.209 57.1733 329.583 58.8 330.329 60.08C331.076 61.36 332.036 62 333.209 62H335.209C336.276 62 337.129 62.3733 337.769 63.12C338.463 63.8667 338.809 64.8267 338.809 66C338.809 67.1733 338.303 68.1333 337.289 68.88C336.276 69.6267 334.969 70 333.369 70H333.209ZM351.674 70C350.5 70 349.514 69.6267 348.714 68.88C347.967 68.08 347.594 67.0933 347.594 65.92V30.32C347.594 29.0933 347.967 28.1067 348.714 27.36C349.514 26.6133 350.5 26.24 351.674 26.24C352.9 26.24 353.887 26.6133 354.634 27.36C355.38 28.1067 355.754 29.0933 355.754 30.32V65.92C355.754 67.0933 355.38 68.08 354.634 68.88C353.887 69.6267 352.9 70 351.674 70ZM351.674 19.12C350.234 19.12 348.98 18.6133 347.914 17.6C346.9 16.5333 346.394 15.28 346.394 13.84C346.394 12.4 346.9 11.1733 347.914 10.16C348.98 9.09333 350.234 8.56 351.674 8.56C353.114 8.56 354.34 9.09333 355.354 10.16C356.42 11.1733 356.954 12.4 356.954 13.84C356.954 15.28 356.42 16.5333 355.354 17.6C354.34 18.6133 353.114 19.12 351.674 19.12ZM374.854 70C373.681 70 372.721 69.6533 371.974 68.96C371.281 68.2133 370.934 67.2533 370.934 66.08V11.44C370.934 10.2667 371.281 9.33333 371.974 8.64C372.721 7.89333 373.681 7.52 374.854 7.52C376.028 7.52 376.961 7.89333 377.654 8.64C378.401 9.33333 378.774 10.2667 378.774 11.44V44L398.214 26.64C399.014 25.8933 399.894 25.5467 400.854 25.6C401.868 25.6533 402.721 26.08 403.414 26.88C404.161 27.68 404.508 28.56 404.454 29.52C404.401 30.48 403.974 31.3333 403.174 32.08L388.454 45.2L403.974 64.24C404.668 65.0933 404.961 66.0267 404.854 67.04C404.801 68 404.321 68.8533 403.414 69.6C402.561 70.2933 401.601 70.5867 400.534 70.48C399.521 70.4267 398.668 69.9733 397.974 69.12L382.774 50.32L378.774 53.84V66.08C378.774 67.2533 378.401 68.2133 377.654 68.96C376.961 69.6533 376.028 70 374.854 70Z" fill="#ECECEC"/>
</svg>
