<svg width="135" height="134" viewBox="0 0 135 134" fill="none" xmlns="http://www.w3.org/2000/svg">
<path fill-rule="evenodd" clip-rule="evenodd" d="M0 0L134 134H134.499L134.718 133.781V89.282L45.4362 0H0ZM42.4764 30.9523C42.8629 31.9046 43.438 32.7625 44.2017 33.5262C45.4934 34.8178 47.0584 35.5627 48.8969 35.7607C49.1986 35.7607 49.4485 35.6617 49.6464 35.4637C49.8539 35.2563 49.9576 35.0394 49.9576 34.8131C49.967 34.5774 49.8916 34.37 49.7313 34.1909C49.5899 34.0117 49.373 33.8986 49.0808 33.8515C48.3925 33.7478 47.7467 33.5639 47.1433 33.2999C46.5587 33.0359 46.0261 32.6635 45.5452 32.1827C44.989 31.6264 44.5741 30.9948 44.3007 30.2876C44.0367 29.5711 43.9142 28.8263 43.933 28.0532C43.9613 27.2895 44.131 26.5447 44.4421 25.8187C44.7627 25.0833 45.2247 24.4139 45.8281 23.8106C46.422 23.2166 47.082 22.764 47.808 22.4529C48.5434 22.1324 49.2929 21.9579 50.0566 21.9296C50.8297 21.9108 51.5745 22.0334 52.291 22.2973C53.0076 22.5613 53.644 22.9715 54.2002 23.5277C54.813 24.1405 55.2232 24.7109 55.4306 25.2389C55.6474 25.7763 55.7794 26.3703 55.8266 27.0208C55.8643 27.3225 55.9774 27.5582 56.166 27.7279C56.364 27.8882 56.5808 27.9731 56.8165 27.9825C57.0711 27.9919 57.2879 27.9071 57.467 27.7279C57.5896 27.6054 57.6745 27.4828 57.7216 27.3602C57.7687 27.2377 57.7829 27.0727 57.764 26.8653C57.6698 25.9036 57.4529 25.0645 57.1135 24.348C56.7835 23.6408 56.2555 22.9243 55.5296 22.1983C54.7565 21.4252 53.8938 20.8548 52.9416 20.4871C51.9893 20.1195 51.0041 19.945 49.9859 19.9639C48.9865 19.9827 48.0012 20.1949 47.0302 20.6003C46.0779 21.0057 45.2058 21.6044 44.4139 22.3963C43.6125 23.1977 43.0044 24.0793 42.5895 25.0409C42.1841 26.012 41.9673 27.002 41.939 28.0108C41.9296 29.0196 42.1087 30.0001 42.4764 30.9523ZM53.4838 41.9881C53.8987 42.9497 54.5209 43.8454 55.3506 44.6751C56.1803 45.5047 57.0712 46.1223 58.0235 46.5277C58.9945 46.9331 59.9798 47.1358 60.9792 47.1358C61.988 47.1264 62.9732 46.9142 63.9349 46.4994C64.906 46.0751 65.8063 45.4482 66.636 44.6185C67.4657 43.7888 68.0879 42.8932 68.5028 41.9315C68.9176 40.9698 69.125 39.9893 69.125 38.9899C69.1345 37.9811 68.9318 36.9959 68.5169 36.0342C68.1209 35.0726 67.5081 34.1769 66.6784 33.3472C65.8488 32.5175 64.9484 31.9 63.9773 31.4946C63.0156 31.0798 62.0304 30.8771 61.0216 30.8865C60.0316 30.8959 59.0558 31.108 58.0942 31.5229C57.1325 31.9377 56.2368 32.56 55.4072 33.3896C54.5775 34.2193 53.9505 35.1197 53.5263 36.0908C53.1114 37.0525 52.8946 38.033 52.8757 39.0323C52.8757 40.0317 53.0784 41.017 53.4838 41.9881ZM59.4235 44.9579C58.4147 44.7033 57.5002 44.1659 56.68 43.3457C55.8597 42.5255 55.3223 41.6109 55.0677 40.6021C54.8226 39.5839 54.8462 38.5704 55.1385 37.5616C55.4402 36.5433 56.0011 35.6241 56.8214 34.8039C57.6416 33.9836 58.5561 33.4273 59.5649 33.1351C60.5832 32.8334 61.5967 32.8098 62.6055 33.0644C63.6143 33.3189 64.5288 33.8563 65.3491 34.6766C66.1693 35.4968 66.7067 36.4113 66.9613 37.4201C67.2158 38.429 67.1923 39.4425 66.8906 40.4607C66.5983 41.4695 66.042 42.384 65.2218 43.2043C64.4016 44.0245 63.4823 44.5855 62.4641 44.8872C61.4553 45.1795 60.4418 45.203 59.4235 44.9579ZM63.8203 52.4377C63.8203 52.7205 63.924 52.9656 64.1314 53.173C64.3483 53.3899 64.5934 53.4936 64.8668 53.4842C65.1497 53.4842 65.3948 53.3805 65.6022 53.173L73.3238 45.4514L71.2873 59.8199C71.2685 59.9707 71.2873 60.1216 71.3439 60.2724C71.4193 60.4232 71.5042 60.5458 71.5985 60.6401C71.8153 60.8569 72.0604 60.9607 72.3339 60.9512C72.6073 60.9418 72.8477 60.8334 73.0551 60.626L82.6293 51.0517C82.8462 50.8349 82.9546 50.5945 82.9546 50.3305C82.964 50.0571 82.8603 49.8119 82.6435 49.5951C82.4361 49.3877 82.1909 49.284 81.9081 49.284C81.6347 49.2745 81.3895 49.3782 81.1727 49.5951L73.4369 57.3308L75.4734 42.9624C75.5017 42.6324 75.4027 42.3543 75.1764 42.128C74.969 41.9206 74.7239 41.8169 74.441 41.8169C74.177 41.8169 73.9366 41.9253 73.7198 42.1422L64.1456 51.7164C63.9381 51.9238 63.8297 52.1642 63.8203 52.4377ZM78.1049 66.7223C78.1049 67.0052 78.2087 67.2503 78.4161 67.4577C78.6235 67.6651 78.8686 67.7688 79.1515 67.7688C79.4343 67.7688 79.6794 67.6651 79.8869 67.4577L88.8388 58.5057L91.8794 61.5463C92.0774 61.7443 92.2989 61.8433 92.5441 61.8433C92.8081 61.8433 93.039 61.7443 93.237 61.5463C93.435 61.3483 93.5293 61.122 93.5199 60.8675C93.5293 60.6129 93.435 60.3866 93.237 60.1887L85.671 52.6226C85.473 52.4246 85.242 52.3256 84.978 52.3256C84.7329 52.3256 84.5113 52.4246 84.3134 52.6226C84.1154 52.8206 84.0117 53.0469 84.0022 53.3014C84.0117 53.556 84.1154 53.7823 84.3134 53.9803L87.368 57.035L78.4161 65.9869C78.2087 66.1943 78.1049 66.4395 78.1049 66.7223ZM86.8919 75.3961C87.3067 76.3578 87.9289 77.2534 88.7586 78.0831C89.5883 78.9128 90.4792 79.5303 91.4315 79.9357C92.4026 80.3411 93.3878 80.5438 94.3872 80.5438C95.396 80.5344 96.3812 80.3223 97.3429 79.9074C98.314 79.4832 99.2144 78.8562 100.044 78.0265C100.874 77.1969 101.496 76.3012 101.911 75.3395C102.326 74.3779 102.533 73.3973 102.533 72.398C102.542 71.3892 102.34 70.4039 101.925 69.4423C101.529 68.4806 100.916 67.5849 100.086 66.7552C99.2568 65.9256 98.3564 65.308 97.3853 64.9026C96.4237 64.4878 95.4384 64.2851 94.4296 64.2945C93.4397 64.3039 92.4639 64.5161 91.5022 64.9309C90.5405 65.3457 89.6449 65.968 88.8152 66.7977C87.9855 67.6273 87.3586 68.5277 86.9343 69.4988C86.5194 70.4605 86.3026 71.441 86.2837 72.4404C86.2837 73.4398 86.4865 74.425 86.8919 75.3961ZM92.8316 78.3659C91.8228 78.1114 90.9082 77.574 90.088 76.7537C89.2677 75.9335 88.7303 75.019 88.4758 74.0102C88.2307 72.9919 88.2542 71.9784 88.5465 70.9696C88.8482 69.9514 89.4092 69.0321 90.2294 68.2119C91.0496 67.3916 91.9642 66.8354 92.973 66.5431C93.9912 66.2414 95.0047 66.2178 96.0135 66.4724C97.0223 66.727 97.9369 67.2644 98.7571 68.0846C99.5774 68.9048 100.115 69.8194 100.369 70.8282C100.624 71.837 100.6 72.8505 100.299 73.8687C100.006 74.8775 99.4501 75.7921 98.6298 76.6123C97.8096 77.4326 96.8904 77.9935 95.8721 78.2952C94.8633 78.5875 93.8498 78.6111 92.8316 78.3659ZM97.2425 85.8598C97.2425 86.1427 97.3462 86.3878 97.5536 86.5952C97.7704 86.8121 98.0156 86.9158 98.289 86.9063C98.5718 86.9063 98.817 86.8026 99.0244 86.5952L103.239 82.3809L109.801 88.9428L105.586 93.1572C105.379 93.3646 105.275 93.6097 105.275 93.8926C105.275 94.1754 105.379 94.4205 105.586 94.628C105.803 94.8448 106.048 94.9485 106.322 94.9391C106.595 94.9297 106.836 94.8212 107.043 94.6138L116.617 85.0396C116.834 84.8227 116.942 84.5823 116.942 84.3183C116.952 84.0449 116.848 83.7998 116.631 83.5829C116.424 83.3755 116.179 83.2718 115.896 83.2718C115.623 83.2624 115.377 83.3661 115.161 83.5829L111.102 87.6417L104.54 81.0798L108.599 77.021C108.815 76.8042 108.919 76.559 108.91 76.2856C108.919 76.0122 108.815 75.7671 108.599 75.5502C108.391 75.3428 108.146 75.2391 107.863 75.2391C107.59 75.2297 107.345 75.3334 107.128 75.5502L97.5536 85.1244C97.3462 85.3319 97.2425 85.577 97.2425 85.8598Z" fill="url(#paint0_linear)"/>
<defs>
<linearGradient id="paint0_linear" x1="67.3591" y1="0" x2="67.3591" y2="134" gradientUnits="userSpaceOnUse">
<stop stop-color="#EEC972"/>
<stop offset="1" stop-color="#E6AF2E"/>
</linearGradient>
</defs>
</svg>
