<svg width="58" height="58" viewBox="0 0 58 58" fill="none" xmlns="http://www.w3.org/2000/svg">
<path fill-rule="evenodd" clip-rule="evenodd" d="M4 29C4 42.8071 15.1929 54 29 54C42.8071 54 54 42.8071 54 29C54 15.1929 42.8071 4 29 4C15.1929 4 4 15.1929 4 29ZM29 58C12.9837 58 -1.90992e-07 45.0163 0 29C1.90992e-07 12.9837 12.9837 -1.90992e-07 29 0C45.0163 1.90992e-07 58 12.9837 58 29C58 45.0163 45.0163 58 29 58ZM16.3518 28.2344C16.4475 28.003 16.5885 27.786 16.7749 27.5968C16.7789 27.5927 16.783 27.5886 16.787 27.5846C16.7903 27.5813 16.7935 27.5781 16.7968 27.5749C16.9787 27.3957 17.1948 27.2511 17.4344 27.1518C17.6761 27.0518 17.9333 27.0012 18.1908 27M18.1908 27C17.923 27.0012 17.6676 27.0551 17.4344 27.1518C17.203 27.2475 16.986 27.3885 16.7968 27.5749C16.7931 27.5785 16.7894 27.5821 16.7858 27.5858M16.787 30.4154L27.5858 41.2142C28.3668 41.9953 29.6332 41.9953 30.4142 41.2142C31.1953 40.4332 31.1953 39.1668 30.4142 38.3858L23.0284 31H39.8C40.9046 31 41.8 30.1046 41.8 29C41.8 27.8954 40.9046 27 39.8 27H23.0284L30.4142 19.6142C31.1953 18.8332 31.1953 17.5668 30.4142 16.7858C29.6332 16.0047 28.3668 16.0047 27.5858 16.7858L16.787 27.5846" fill="#1A1A1A"/>
</svg>
