<svg width="58" height="58" viewBox="0 0 58 58" fill="none" xmlns="http://www.w3.org/2000/svg">
<path fill-rule="evenodd" clip-rule="evenodd" d="M29 4C15.1929 4 4 15.1929 4 29C4 42.8071 15.1929 54 29 54C42.8071 54 54 42.8071 54 29C54 15.1929 42.8071 4 29 4ZM0 29C2.38419e-07 12.9837 12.9837 -2.38419e-07 29 0C45.0163 2.38419e-07 58 12.9837 58 29C58 45.0163 45.0163 58 29 58C12.9837 58 -2.38419e-07 45.0163 0 29ZM30.4142 16.7858C31.1953 17.5668 31.1953 18.8332 30.4142 19.6142L23.0284 27H39.8C40.9046 27 41.8 27.8954 41.8 29C41.8 30.1046 40.9046 31 39.8 31H23.0284L30.4142 38.3858C31.1953 39.1668 31.1953 40.4332 30.4142 41.2142C29.6332 41.9953 28.3668 41.9953 27.5858 41.2142L16.7858 30.4142C16.0047 29.6332 16.0047 28.3668 16.7858 27.5858L27.5858 16.7858C28.3668 16.0047 29.6332 16.0047 30.4142 16.7858Z" fill="#F7F9F9"/>
</svg>
