<svg width="104" height="140" viewBox="0 0 104 140" fill="none" xmlns="http://www.w3.org/2000/svg">
<path d="M28.4531 73.4133L28.1411 139.542L51.8623 124.157L75.4405 139.764L75.7525 73.6358L28.4531 73.4133Z" fill="#E95454"/>
<path d="M58.8311 122.052C58.7332 119.993 56.8901 118.439 54.8291 118.427L52.8078 118.415C50.7555 118.344 49.1044 116.659 49.1155 114.588C49.1238 112.484 50.8455 110.778 52.9501 110.787L58.6585 110.814C60.4216 110.821 61.8725 109.383 61.8559 107.622L61.8546 107.352C61.9853 105.615 60.5944 104.139 58.8571 104.133L41.7836 104.055C39.7027 104.044 37.8716 102.494 37.7598 100.437C37.671 98.2331 39.4204 96.4279 41.5966 96.4389L57.4352 96.5136C59.1983 96.5207 60.6492 95.0827 60.6564 93.3195L60.6322 93.1016L60.6313 93.052C60.6623 91.1911 59.1553 89.6661 57.2909 89.657L48.4076 89.6167C46.3268 89.6059 44.4957 88.0555 44.3854 85.973C44.2989 83.7928 46.0459 81.9638 48.2221 81.9748L58.0366 82.0226C59.8713 82.0323 61.2508 80.4964 61.2347 78.6603C61.2361 78.6344 61.2361 78.6344 61.2337 78.6107C61.2352 78.5848 61.2352 78.5848 61.2327 78.5611C61.2662 76.7239 59.9017 75.1743 58.0651 75.1706L47.4783 75.122C45.4233 75.1126 43.5922 73.5622 43.4804 71.5056C43.3915 69.3016 45.141 67.4964 47.3171 67.5074L73.4368 67.6307L73.1248 133.759L58.3427 123.977C58.6569 123.391 58.8668 122.76 58.8311 122.052Z" fill="#ED6362"/>
<path d="M52.0001 103.604C80.6095 103.604 103.802 80.4115 103.802 51.8021C103.802 23.1926 80.6095 0 52.0001 0C23.3906 0 0.197998 23.1926 0.197998 51.8021C0.197998 80.4115 23.3906 103.604 52.0001 103.604Z" fill="#FFCC5B"/>
<path d="M59.0262 45.8589H26.1989C23.6467 45.8589 21.5517 43.7639 21.5517 41.2118L21.5872 40.8922V40.8212C21.5517 38.127 23.7488 35.9255 26.4474 35.9255H49.1993C52.2131 35.9255 54.8762 33.6929 55.0537 30.6747C55.1958 27.5189 52.6791 24.8558 49.5189 24.8558H25.4177C22.759 24.8558 20.7705 22.6232 20.8061 19.9601C20.8061 19.9246 20.8061 19.9246 20.8061 19.8891C20.8061 19.8536 20.8061 19.8536 20.8061 19.8181C20.7705 17.1594 22.7546 14.9224 25.4177 14.9224H50.6374C53.6157 14.9224 56.2788 12.6898 56.4563 9.70709C56.5983 6.51579 54.0817 3.88818 50.9215 3.88818H32.4527C13.6201 11.6512 0.348877 30.1687 0.348877 51.8021C0.348877 73.4355 13.6201 91.9486 32.4572 99.7027H55.9059C58.8842 99.7027 61.5473 97.4701 61.7248 94.4874C61.8669 91.2961 59.3502 88.6729 56.19 88.6729L29.5144 88.6685C26.3675 88.6685 23.8331 86.0365 24.0018 82.8496C24.1571 79.8669 26.838 77.6254 29.8251 77.6254H40.1669C43.1407 77.5411 45.542 75.1044 45.542 72.1084C45.542 69.0591 43.0608 66.5735 40.0071 66.5735H24.3302C21.7781 66.5735 19.6831 64.483 19.7186 61.9264V61.5358C19.5411 59.0191 21.565 56.8886 24.0817 56.8886H58.7066C61.7204 56.8886 64.3835 54.6561 64.5611 51.6734C64.7031 48.4865 62.182 45.8589 59.0262 45.8589Z" fill="#FDBC4B"/>
<path d="M52.0001 88.775C31.6095 88.775 15.0227 72.1838 15.0227 51.7976C15.0227 31.4115 31.6095 14.8247 52.0001 14.8247C72.3907 14.8247 88.9774 31.4159 88.9774 51.8021C88.9774 72.1882 72.3907 88.775 52.0001 88.775Z" fill="#FFDB70"/>
<path opacity="0.2" d="M88.9774 51.802C88.9774 32.1304 73.5225 16.0408 54.1217 14.9312H50.6774C48.4048 14.9312 46.3764 16.6355 46.2388 18.9081C46.1323 21.3404 48.0498 23.3466 50.4599 23.3466L70.8061 23.351C73.2073 23.351 75.1381 25.3573 75.0094 27.7896C74.8895 30.0665 72.8478 31.7754 70.5664 31.7754H62.6791C60.4111 31.8419 58.5779 33.6972 58.5779 35.9831C58.5779 38.3089 60.4732 40.2041 62.799 40.2041H74.7564C76.7049 40.2041 78.2983 41.802 78.2717 43.7461V44.039C78.4049 45.9609 76.8647 47.581 74.9428 47.581H48.538C46.2388 47.581 44.2104 49.2854 44.0728 51.5579C43.9663 53.9902 45.8838 55.9964 48.2939 55.9964H73.3272C75.2757 55.9964 76.8691 57.5943 76.8691 59.5384L76.8425 59.7825V59.8357C76.8691 61.8908 75.1914 63.5685 73.1363 63.5685H55.7817C53.4825 63.5685 51.4541 65.2729 51.3165 67.5721C51.21 69.9778 53.1274 72.0106 55.5376 72.0106H73.9175C75.9459 72.0106 77.4594 73.715 77.4328 75.7434C77.4328 75.7701 77.4328 75.7701 77.4328 75.7967C77.4328 75.8233 77.4328 75.8233 77.4328 75.85C77.4594 77.8784 75.9459 79.5828 73.9175 79.5828H54.6854C52.4128 79.5828 50.3844 81.2871 50.2468 83.5597C50.1403 85.9964 52.0577 87.9982 54.4679 87.9982H59.5411C76.3321 84.5006 88.9774 69.6005 88.9774 51.802Z" fill="white"/>
<path d="M77.8145 43.613H59.8296L54.2681 26.5069C53.5535 24.3099 50.4421 24.3099 49.7275 26.5069L44.1704 43.613H26.1855C23.8731 43.613 22.9099 46.5735 24.783 47.9317L39.3324 58.5043L33.7754 75.6104C33.0608 77.8074 35.5775 79.6361 37.4505 78.2779L52 67.7054L66.5495 78.2779C68.4226 79.6361 70.9392 77.8074 70.2246 75.6104L64.6676 58.5043L79.2171 47.9317C81.0857 46.5735 80.127 43.613 77.8145 43.613Z" fill="#EC9922"/>
</svg>
