<svg width="120" height="142" viewBox="0 0 120 142" fill="none" xmlns="http://www.w3.org/2000/svg">
<path d="M31.0031 61.376L0 119.787L28.1536 117.186L41.7799 141.962L72.783 83.5509L31.0031 61.376Z" fill="#E95454"/>
<path d="M34.5539 124.953C35.4238 123.085 34.5139 120.852 32.6941 119.885L30.9099 118.935C29.1256 117.918 28.4465 115.659 29.4185 113.83C30.4039 111.971 32.7208 111.261 34.5805 112.246L39.6227 114.922C41.1806 115.748 43.1336 115.149 43.9369 113.582L44.0612 113.342C44.9844 111.864 44.4385 109.911 42.9028 109.099L27.8206 101.096C25.9831 100.12 25.0821 97.8961 25.9387 96.0231C26.8841 94.0302 29.272 93.2446 31.1939 94.2654L45.1842 101.691C46.7421 102.517 48.695 101.917 49.5206 100.36L49.6005 100.155L49.6227 100.111C50.5148 98.4776 49.889 96.427 48.2423 95.5526L40.395 91.3892C38.5574 90.4128 37.6564 88.1891 38.5264 86.2938C39.4629 84.3231 41.8597 83.5153 43.7816 84.5362L52.45 89.1389C54.0701 90 56.0053 89.2809 56.8442 87.6476C56.8575 87.6254 56.8575 87.6254 56.8664 87.6032C56.8797 87.581 56.8797 87.581 56.8886 87.5588C57.7718 85.9476 57.2836 83.9414 55.6591 83.0848L46.3071 78.1225C44.4918 77.1593 43.5907 74.9356 44.4474 73.0626C45.3928 71.0697 47.7807 70.284 49.7026 71.3049L72.7741 83.5508L41.7709 141.962L33.2268 126.431C33.7771 126.059 34.2565 125.597 34.5539 124.953Z" fill="#ED6362"/>
<path d="M88.9969 61.376L120 119.787L91.8464 117.186L78.2202 141.962L47.217 83.5509L88.9969 61.376Z" fill="#ED6362"/>
<path d="M85.446 124.953C84.5761 123.085 85.486 120.852 87.3058 119.885L89.0901 118.935C90.8744 117.918 91.5534 115.659 90.5814 113.83C89.5961 111.971 87.2791 111.26 85.4194 112.246L80.3772 114.922C78.8193 115.748 76.8664 115.149 76.063 113.582L75.9387 113.342C75.0155 111.864 75.5614 109.911 77.0972 109.099L92.1837 101.092C94.0213 100.115 94.9223 97.8916 94.0657 96.0186C93.1202 94.0257 90.7323 93.2401 88.8104 94.2609L74.8202 101.687C73.2623 102.512 71.3093 101.913 70.4838 100.355L70.4039 100.151L70.3817 100.106C69.4895 98.4731 70.1154 96.4225 71.7621 95.5481L79.6094 91.3848C81.4469 90.4083 82.3479 88.1846 81.478 86.2893C80.5415 84.3186 78.1447 83.5108 76.2228 84.5317L67.5455 89.1433C65.9254 90.0044 63.9902 89.2853 63.1513 87.652C63.138 87.6298 63.138 87.6298 63.1291 87.6076C63.1158 87.5854 63.1158 87.5854 63.1069 87.5632C62.2237 85.952 62.7119 83.9458 64.3364 83.0892L73.6884 78.1269C75.5037 77.1637 76.4048 74.94 75.5481 73.067C74.6027 71.0741 72.2148 70.2884 70.2929 71.3093L47.2214 83.5552L78.2245 141.966L86.7687 126.436C86.2228 126.059 85.7434 125.597 85.446 124.953Z" fill="#E95454"/>
<path d="M60.0001 103.604C88.6095 103.604 111.802 80.4115 111.802 51.8021C111.802 23.1926 88.6095 0 60.0001 0C31.3906 0 8.198 23.1926 8.198 51.8021C8.198 80.4115 31.3906 103.604 60.0001 103.604Z" fill="#FFCC5B"/>
<path d="M67.0262 45.8589H34.1989C31.6467 45.8589 29.5517 43.7639 29.5517 41.2118L29.5872 40.8922V40.8212C29.5517 38.127 31.7488 35.9255 34.4474 35.9255H57.1993C60.2131 35.9255 62.8762 33.6929 63.0537 30.6747C63.1958 27.5189 60.6791 24.8558 57.5189 24.8558H33.4177C30.759 24.8558 28.7705 22.6232 28.8061 19.9601C28.8061 19.9246 28.8061 19.9246 28.8061 19.8891C28.8061 19.8536 28.8061 19.8536 28.8061 19.8181C28.7705 17.1594 30.7546 14.9224 33.4177 14.9224H58.6374C61.6157 14.9224 64.2788 12.6898 64.4563 9.70709C64.5983 6.51579 62.0817 3.88818 58.9215 3.88818H40.4527C21.6201 11.6512 8.34888 30.1687 8.34888 51.8021C8.34888 73.4355 21.6201 91.9486 40.4572 99.7027H63.9059C66.8842 99.7027 69.5473 97.4701 69.7248 94.4874C69.8669 91.2961 67.3502 88.6729 64.19 88.6729L37.5144 88.6685C34.3675 88.6685 31.8331 86.0365 32.0018 82.8496C32.1571 79.8669 34.838 77.6254 37.8251 77.6254H48.1669C51.1407 77.5411 53.542 75.1044 53.542 72.1084C53.542 69.0591 51.0608 66.5735 48.0071 66.5735H32.3302C29.7781 66.5735 27.6831 64.483 27.7186 61.9264V61.5358C27.5411 59.0191 29.565 56.8886 32.0817 56.8886H66.7066C69.7204 56.8886 72.3835 54.6561 72.5611 51.6734C72.7031 48.4865 70.182 45.8589 67.0262 45.8589Z" fill="#FDBC4B"/>
<path d="M60.0001 88.775C39.6095 88.775 23.0227 72.1838 23.0227 51.7976C23.0227 31.4115 39.6095 14.8247 60.0001 14.8247C80.3907 14.8247 96.9774 31.4159 96.9774 51.8021C96.9774 72.1882 80.3907 88.775 60.0001 88.775Z" fill="#FFDB70"/>
<path opacity="0.2" d="M96.9774 51.802C96.9774 32.1304 81.5225 16.0408 62.1217 14.9312H58.6774C56.4048 14.9312 54.3764 16.6355 54.2388 18.9081C54.1323 21.3404 56.0498 23.3466 58.4599 23.3466L78.8061 23.351C81.2073 23.351 83.1381 25.3573 83.0094 27.7896C82.8895 30.0665 80.8478 31.7754 78.5664 31.7754H70.6791C68.4111 31.8419 66.5779 33.6972 66.5779 35.9831C66.5779 38.3089 68.4732 40.2041 70.799 40.2041H82.7564C84.7049 40.2041 86.2983 41.802 86.2717 43.7461V44.039C86.4049 45.9609 84.8647 47.581 82.9428 47.581H56.538C54.2388 47.581 52.2104 49.2854 52.0728 51.5579C51.9663 53.9902 53.8838 55.9964 56.2939 55.9964H81.3272C83.2757 55.9964 84.8691 57.5943 84.8691 59.5384L84.8425 59.7825V59.8357C84.8691 61.8908 83.1914 63.5685 81.1363 63.5685H63.7817C61.4825 63.5685 59.4541 65.2729 59.3165 67.5721C59.21 69.9778 61.1274 72.0106 63.5376 72.0106H81.9175C83.9459 72.0106 85.4594 73.715 85.4328 75.7434C85.4328 75.7701 85.4328 75.7701 85.4328 75.7967C85.4328 75.8233 85.4328 75.8233 85.4328 75.85C85.4594 77.8784 83.9459 79.5828 81.9175 79.5828H62.6854C60.4128 79.5828 58.3844 81.2871 58.2468 83.5597C58.1403 85.9964 60.0577 87.9982 62.4679 87.9982H67.5411C84.3321 84.5006 96.9774 69.6005 96.9774 51.802Z" fill="white"/>
<path d="M85.8145 43.613H67.8296L62.2681 26.5069C61.5535 24.3099 58.4421 24.3099 57.7275 26.5069L52.1704 43.613H34.1855C31.8731 43.613 30.9099 46.5735 32.783 47.9317L47.3324 58.5043L41.7754 75.6104C41.0608 77.8074 43.5775 79.6361 45.4505 78.2779L60 67.7054L74.5495 78.2779C76.4226 79.6361 78.9392 77.8074 78.2246 75.6104L72.6676 58.5043L87.2171 47.9317C89.0857 46.5735 88.127 43.613 85.8145 43.613Z" fill="#EC9922"/>
</svg>
