<svg width="92" height="92" viewBox="0 0 92 92" fill="none" xmlns="http://www.w3.org/2000/svg">
<rect x="1" y="1" width="90" height="90" rx="11" fill="#ED1D24" stroke="#ED1D24" stroke-width="2"/>
<path d="M75.8245 30.7983C75.1271 28.1829 72.8604 26.0905 70.245 25.3931C64.3167 23.8238 28.5728 23.6495 21.7727 25.3931C19.1573 26.0905 16.8906 28.1829 16.1932 30.7983C14.6239 37.424 14.4496 54.337 16.1932 61.137C16.8906 63.7524 19.1573 65.8448 21.7727 66.5422C28.0497 68.2858 63.7936 68.2858 70.245 66.5422C72.8604 65.8448 75.1271 63.7524 75.8245 61.137C77.3938 54.86 77.3938 37.2496 75.8245 30.7983Z" fill="#F7F7F7"/>
<path d="M39.7319 36.7266V55.2088L55.9474 45.9677" fill="#ED1D24"/>
</svg>
