<svg width="92" height="92" viewBox="0 0 92 92" fill="none" xmlns="http://www.w3.org/2000/svg">
<rect width="92" height="92" rx="12" fill="#25D366"/>
<path d="M18 73L21.9551 58.6197C19.5145 54.4103 18.2321 49.6387 18.2344 44.7457C18.2415 29.4483 30.7492 17 46.1172 17C53.575 17.0023 60.5756 19.8933 65.8412 25.1387C71.1046 30.384 74.0023 37.356 74 44.7713C73.993 60.071 61.4852 72.5193 46.1172 72.5193C41.4517 72.517 36.8542 71.3527 32.7819 69.1407L18 73ZM33.4665 64.117C37.3958 66.4387 41.1469 67.8293 46.1078 67.8317C58.8805 67.8317 69.2853 57.4857 69.2923 44.7667C69.297 32.022 58.9415 21.69 46.1266 21.6853C33.3446 21.6853 22.9468 32.0313 22.9421 44.748C22.9398 49.9397 24.4684 53.827 27.0356 57.894L24.6935 66.406L33.4665 64.117ZM60.1629 51.3677C59.9894 51.0783 59.5252 50.9057 58.8266 50.558C58.1303 50.2103 54.705 48.5327 54.065 48.3017C53.4273 48.0707 52.9631 47.954 52.4965 48.6493C52.0323 49.3423 50.696 50.9057 50.2904 51.3677C49.8848 51.8297 49.4768 51.888 48.7805 51.5403C48.0842 51.1927 45.8382 50.4623 43.1773 48.0987C41.1071 46.26 39.7074 43.9897 39.3018 43.2943C38.8963 42.6013 39.2596 42.2257 39.6066 41.8803C39.9208 41.57 40.3029 41.0707 40.6523 40.6647C41.0063 40.2633 41.1212 39.974 41.3556 39.5097C41.5877 39.0477 41.4728 38.6417 41.297 38.294C41.1212 37.9487 39.7285 34.535 39.1495 33.1467C38.5821 31.7957 38.0077 31.9777 37.581 31.9567L36.2447 31.9333C35.7805 31.9333 35.0255 32.106 34.3878 32.8013C33.7501 33.4967 31.9496 35.172 31.9496 38.5857C31.9496 41.9993 34.4465 45.2963 34.7934 45.7583C35.1428 46.2203 39.7051 53.225 46.694 56.228C48.3562 56.942 49.655 57.369 50.6655 57.6887C52.3348 58.216 53.854 58.1413 55.0543 57.964C56.393 57.7657 59.1759 56.2863 59.7573 54.667C60.3388 53.0453 60.3388 51.657 60.1629 51.3677Z" fill="#F7F7F7"/>
</svg>
