<svg width="92" height="92" viewBox="0 0 92 92" fill="none" xmlns="http://www.w3.org/2000/svg">
<rect width="92" height="92" rx="12" fill="#121212"/>
<path d="M20.1591 68.325L20.3591 68.909C20.3371 68.845 20.2591 68.642 20.1591 68.325ZM28.4001 55.004C28.5092 53.6555 28.9209 52.349 29.6046 51.1816C30.2882 50.0141 31.2263 49.0159 32.3491 48.261C35.7011 45.81 39.8791 47.194 39.8791 47.194V38.952C40.8943 38.9263 41.9099 38.9899 42.9141 39.142V49.742C42.9141 49.742 38.7361 48.358 35.3841 50.809C34.2613 51.5639 33.3233 52.5621 32.6396 53.7296C31.9559 54.897 31.5442 56.2035 31.4351 57.552C31.3555 59.6495 31.9568 61.7165 33.1491 63.444C32.7931 63.254 32.4381 63.038 32.0701 62.796C30.8582 61.9052 29.8878 60.7261 29.2469 59.3654C28.6061 58.0047 28.315 56.5056 28.4001 55.004ZM60.2001 23.714C58.3945 21.6966 57.1855 19.2169 56.7081 16.552H59.6081C59.4828 20.1438 60.7893 23.6383 63.2401 26.267L63.3041 26.33C62.1647 25.5921 61.1231 24.7131 60.2041 23.714H60.2001ZM74.1561 31.181V41.569C71.9882 41.4699 69.8336 41.1768 67.7181 40.693C65.5173 40.1299 63.4058 39.2622 61.4451 38.115C61.4451 38.115 59.7451 36.998 59.6161 36.921V58.382C59.5448 60.6572 59.1162 62.907 58.3461 65.049C56.5215 69.7689 52.9329 73.5942 48.3391 75.716C45.8381 76.868 43.1176 77.4657 40.3641 77.468C36.5479 77.4568 32.8167 76.3408 29.6211 74.255C28.518 73.4941 27.4891 72.631 26.5481 71.677L26.5731 71.702C29.7656 73.7946 33.4989 74.9111 37.3161 74.915C40.0696 74.9127 42.7901 74.315 45.2911 73.163C49.8849 71.0411 53.4735 67.2159 55.2981 62.496C56.0682 60.354 56.4968 58.1042 56.5681 55.829V34.381C56.7081 34.457 58.3971 35.575 58.3971 35.575C60.3579 36.7222 62.4692 37.5899 64.6701 38.153C66.7856 38.6368 68.9402 38.9299 71.1081 39.029V30.889C72.102 31.1443 73.1297 31.2429 74.1541 31.181H74.1561Z" fill="#EE1D52"/>
<path d="M71.109 30.876V39.016C68.9411 38.9169 66.7865 38.6238 64.671 38.14C62.4702 37.5769 60.3588 36.7092 58.398 35.562C58.398 35.562 56.698 34.445 56.569 34.368V55.829C56.4977 58.1042 56.0691 60.354 55.299 62.496C53.4745 67.2159 49.8859 71.0411 45.292 73.163C42.791 74.315 40.0705 74.9127 37.317 74.915C33.5009 74.9038 29.7696 73.7878 26.574 71.702L26.549 71.677C26.0152 71.1329 25.5108 70.5608 25.038 69.963C23.8365 68.3743 22.87 66.621 22.168 64.757V64.744C21.4036 62.5131 21.0215 60.1691 21.038 57.811C21.0928 54.7371 21.8901 51.7221 23.362 49.023C24.5357 46.9398 26.0608 45.0753 27.87 43.512C29.4686 42.1648 31.2795 41.092 33.229 40.337C35.3371 39.4493 37.5959 38.974 39.883 38.937V47.178C39.883 47.178 35.705 45.794 32.353 48.245C31.1554 49.0331 30.168 50.1011 29.4762 51.3568C28.7844 52.6124 28.4091 54.0178 28.3828 55.4511C28.3565 56.8845 28.68 58.3026 29.3253 59.5828C29.9705 60.863 30.9181 61.9666 32.086 62.798C32.454 63.039 32.81 63.255 33.165 63.446C34.3888 65.075 36.132 66.2374 38.1063 66.7407C40.0807 67.2441 42.1677 67.0582 44.022 66.214C45.0979 65.7439 46.0625 65.0518 46.8524 64.1831C47.6424 63.3144 48.2399 62.2886 48.606 61.173C49.0025 59.8223 49.1616 58.4131 49.076 57.008V16.552H56.695C57.1667 19.2188 58.3764 21.7 60.187 23.714C61.1117 24.7072 62.1525 25.5855 63.287 26.33C64.5128 27.6444 65.9509 28.7433 67.541 29.581C68.6753 30.1526 69.8728 30.5889 71.109 30.881V30.876Z" fill="#F7F7F7"/>
<path d="M19.1311 62.2419L19.3211 62.788C19.2961 62.725 19.2201 62.5339 19.1311 62.2419Z" fill="#69C9D0"/>
<path d="M33.2271 40.3501C31.2761 41.1021 29.4648 42.1753 27.8681 43.5251C26.055 45.0897 24.5293 46.9591 23.36 49.0491C21.886 51.7473 21.0885 54.7629 21.0361 57.8371C21.0247 60.1952 21.4066 62.5386 22.166 64.7711V64.7841C22.8708 66.6468 23.8372 68.3997 25.0361 69.9901C25.5089 70.5878 26.0133 71.16 26.547 71.7041C24.8268 70.5124 23.2908 69.0748 21.9881 67.4371C20.7884 65.8585 19.8259 64.1131 19.1311 62.2561V62.2311C18.3594 59.9975 17.9772 57.6481 18.0011 55.2851C18.0559 52.2112 18.8532 49.1962 20.325 46.4971C21.4943 44.4071 23.02 42.5377 24.8331 40.9731C26.8892 39.2165 29.2955 37.9175 31.8922 37.1622C34.4889 36.4068 37.2165 36.2125 39.894 36.5921V38.9541C37.6026 38.9897 35.3393 39.4649 33.2271 40.3541V40.3501Z" fill="#69C9D0"/>
<path d="M56.707 16.552H49.088V57.01C49.1672 58.4149 49.0083 59.8231 48.618 61.175C48.2458 62.2875 47.646 63.3103 46.8568 64.1782C46.0676 65.0461 45.1062 65.7401 44.034 66.216C42.6173 66.9048 41.0381 67.1898 39.4699 67.0397C37.9018 66.8896 36.4053 66.3101 35.145 65.365C34.3878 64.8456 33.7227 64.2034 33.177 63.465C34.367 64.1232 35.6981 64.4851 37.0576 64.5199C38.417 64.5547 39.7649 64.2615 40.987 63.665C42.0618 63.1931 43.0253 62.5004 43.815 61.6319C44.6047 60.7635 45.203 59.7387 45.571 58.624C45.9675 57.2733 46.1266 55.8641 46.041 54.459V14H56.568C56.4915 14.8529 56.5383 15.7124 56.707 16.552ZM71.107 28.628V30.876C68.0963 30.1957 65.3664 28.6092 63.285 26.33C63.679 26.584 64.072 26.813 64.491 27.03C66.5271 28.1101 68.8024 28.66 71.107 28.629V28.628Z" fill="#69C9D0"/>
</svg>
