<svg width="92" height="92" viewBox="0 0 92 92" fill="none" xmlns="http://www.w3.org/2000/svg">
<rect x="1" y="1" width="90" height="90" rx="11" fill="#1DA1F2" stroke="#1DA1F2" stroke-width="2"/>
<path d="M73.5999 30.2312C71.7546 31.1359 69.6017 31.7391 67.4488 32.0407C69.7555 30.6836 71.447 28.5724 72.3697 26.0089C70.2168 27.2153 67.9101 28.12 65.4497 28.5724C63.7762 26.8917 61.592 25.7885 59.2249 25.4284C56.8577 25.0683 54.4353 25.4707 52.3212 26.5752C50.2071 27.6797 48.5153 29.4268 47.4997 31.5542C46.4841 33.6816 46.1995 36.0746 46.6886 38.3741C38.077 37.9217 29.7729 34.0011 24.3906 27.2153C23.6583 28.3623 23.1647 29.6401 22.9384 30.9751C22.7121 32.3101 22.7574 33.6758 23.0719 34.9935C23.3864 36.3112 23.9638 37.5548 24.7708 38.6527C25.5778 39.7505 26.5984 40.6808 27.7738 41.39C26.0822 41.39 24.3906 41.0885 22.8529 40.3345C23.0066 45.3107 26.5436 49.6838 31.4645 50.7394C29.9267 51.1918 28.2351 51.1918 26.5436 50.8902C28.0813 55.2632 32.2334 58.2791 36.8468 58.4299C32.3872 62.049 26.3898 63.7078 20.7 62.803C25.4547 65.9142 31.003 67.6574 36.7162 67.835C42.4294 68.0126 48.0792 66.6175 53.0253 63.8079C57.9714 60.9982 62.0162 56.8863 64.7013 51.938C67.3865 46.9898 68.6046 41.403 68.2177 35.8106C70.3706 34.3027 72.2159 32.4931 73.5999 30.2312Z" fill="#F7F7F7"/>
</svg>
