<svg width="92" height="92" viewBox="0 0 92 92" fill="none" xmlns="http://www.w3.org/2000/svg">
<rect width="92" height="92" rx="12" fill="#30353E"/>
<path d="M21.321 40.1814L27.5981 20.7664C27.89 19.7445 29.3498 19.7445 29.6418 20.7664L46.4292 72.2966L63.2167 20.7664C63.5086 19.7445 64.9684 19.7445 65.2604 20.7664L71.5374 40.1814" fill="#E24329"/>
<path d="M46.4292 72.2965L21.321 40.1814H35.9772L46.4292 72.2965ZM56.8959 40.1814H71.5374L46.4292 72.2965L56.8813 40.1814H56.8959Z" fill="#FC6D26"/>
<path d="M21.321 40.1814L18.1095 49.9619C17.8175 50.8378 18.1095 51.8596 18.9854 52.2976L46.4292 72.2965L21.321 40.1814ZM71.5374 40.1814L74.7489 49.9619C75.0409 50.8378 74.7489 51.8596 73.873 52.2976L46.4292 72.2965L71.5374 40.1814Z" fill="#FCA326"/>
</svg>
