<svg width="92" height="92" viewBox="0 0 92 92" fill="none" xmlns="http://www.w3.org/2000/svg">
<rect width="92" height="92" rx="12" fill="#F7F7F7"/>
<path d="M46 16C29.4321 16 16 29.377 16 45.877C16 58.541 23.9012 69.3606 35.0618 73.7131C34.7901 71.3525 34.5679 67.7131 35.1605 65.1311C35.7037 62.7951 38.6666 50.2788 38.6666 50.2788C38.6666 50.2788 37.7777 48.4836 37.7777 45.8525C37.7777 41.6968 40.1975 38.5984 43.2099 38.5984C45.7778 38.5984 47.0124 40.5164 47.0124 42.8032C47.0124 45.3606 45.3827 49.1968 44.5185 52.7622C43.8025 55.7378 46.0247 58.1721 48.963 58.1721C54.2962 58.1721 58.395 52.5656 58.395 44.5C58.395 37.3442 53.2346 32.3525 45.8519 32.3525C37.3086 32.3525 32.2962 38.7212 32.2962 45.3115C32.2962 47.8689 33.284 50.623 34.5185 52.123C34.7654 52.418 34.7901 52.6885 34.716 52.9836C34.4939 53.918 33.9753 55.959 33.8765 56.377C33.7531 56.918 33.4321 57.041 32.8643 56.7705C29.1111 55.0246 26.7654 49.5901 26.7654 45.1885C26.7654 35.7705 33.6296 27.1147 46.5926 27.1147C56.9876 27.1147 65.0864 34.4917 65.0864 44.377C65.0864 54.6804 58.5679 62.9672 49.5309 62.9672C46.4939 62.9672 43.6296 61.3935 42.6666 59.5246C42.6666 59.5246 41.1605 65.2295 40.7901 66.6311C40.1235 69.2378 38.2962 72.4836 37.0617 74.4754C39.8765 75.3361 42.8395 75.8033 45.9506 75.8033C62.5185 75.8033 75.9506 62.4263 75.9506 45.9263C76 29.377 62.5679 16 46 16Z" fill="#E60019"/>
</svg>
