<svg width="92" height="92" viewBox="0 0 92 92" fill="none" xmlns="http://www.w3.org/2000/svg">
<rect width="92" height="92" rx="12" fill="#00749C"/>
<path d="M46 17C30.0089 17 17 30.0089 17 46C17 61.9911 30.0089 75 46 75C61.9911 75 75 61.9911 75 46C75 30.0089 61.9911 17 46 17ZM46 18.3606C61.2564 18.3606 73.6418 30.746 73.6418 46C73.6418 61.2564 61.2564 73.6418 46 73.6418C30.7436 73.6418 18.3582 61.2564 18.3582 46C18.3606 30.7436 30.746 18.3582 46 18.3582V18.3606ZM46 21.1542C41.8818 21.1436 37.826 22.1601 34.1996 24.1117C30.5733 26.0633 27.4908 28.8884 25.2312 32.3313C25.816 32.3507 26.3453 32.3313 26.8189 32.3313C29.4241 32.3313 33.4648 32.0293 33.4648 32.0293C34.8036 31.9543 34.9558 33.907 33.6146 34.0689C33.6146 34.0689 32.2468 34.2937 30.7436 34.3686L39.8061 61.2564L45.2436 44.9439L41.3938 34.3686C40.0526 34.2961 38.75 34.0689 38.75 34.0689C37.4088 33.9916 37.561 31.9519 38.9023 32.0293C38.9023 32.0293 43.0275 32.3313 45.4708 32.3313C48.0759 32.3313 52.1166 32.0293 52.1166 32.0293C53.4578 31.9543 53.6077 33.907 52.2688 34.0689C52.2688 34.0689 50.8913 34.2937 49.3978 34.3686L58.3854 61.1042L60.877 52.7957C62.1337 49.5694 62.7668 46.8507 62.7668 44.7168C62.7668 41.6379 61.6793 39.5693 60.7272 37.9187C59.4705 35.8718 58.3105 34.0762 58.3105 32.0293C58.3105 29.7431 60.0191 27.6478 62.4623 27.6478H62.7644C58.1924 23.4513 52.2059 21.1333 46 21.1567V21.1542ZM67.8249 34.0665C67.9385 34.8616 67.9772 35.7195 67.9772 36.6354C67.9772 39.156 67.5035 41.998 66.0873 45.5481L58.5353 67.5228C62.2932 65.3284 65.4086 62.1851 67.5695 58.4078C69.7305 54.6305 70.8611 50.3517 70.8482 46C70.8482 41.6742 69.7728 37.6069 67.8273 34.0665H67.8249ZM23.2688 35.879C21.8592 39.0661 21.1386 42.5151 21.1542 46C21.1542 55.8455 26.8262 64.3232 35.125 68.3542L23.2688 35.879ZM46.4519 48.1895L38.9772 69.8646C41.2053 70.5171 43.5543 70.8458 46 70.8458C48.9 70.8458 51.6453 70.3938 54.2312 69.4876C54.1659 69.3837 54.1273 69.2314 54.0813 69.1082L46.4519 48.1895Z" fill="#F7F7F7"/>
</svg>
