<svg width="92" height="92" viewBox="0 0 92 92" fill="none" xmlns="http://www.w3.org/2000/svg">
<rect width="92" height="92" rx="12" fill="#2EBD59"/>
<path d="M46 17.48C30.2483 17.48 17.48 30.2483 17.48 46C17.48 61.7517 30.2483 74.52 46 74.52C61.7517 74.52 74.52 61.7517 74.52 46C74.52 30.2502 61.7517 17.4819 46 17.48ZM59.0797 58.6126C58.5679 59.4533 57.4722 59.716 56.6354 59.2042C49.9389 55.1116 41.5084 54.1872 31.5814 56.4544C30.6239 56.6743 29.6703 56.0749 29.4523 55.1174C29.2324 54.16 29.8299 53.2064 30.7893 52.9884C41.6524 50.5071 50.9723 51.5755 58.49 56.1683C59.3268 56.684 59.5934 57.7758 59.0797 58.6126ZM62.569 50.8496C61.9249 51.8966 60.5548 52.2236 59.5098 51.5814C51.846 46.8699 40.1578 45.5057 31.091 48.2575C29.9155 48.6136 28.6739 47.95 28.3158 46.7765C27.9616 45.601 28.6253 44.3614 29.7988 44.0033C40.1559 40.8603 53.0332 42.3822 61.8353 47.7923C62.8823 48.4365 63.2132 49.8046 62.569 50.8496ZM62.8687 42.7617C53.6754 37.3029 38.5114 36.8008 29.7345 39.4631C28.3256 39.8912 26.8349 39.0952 26.4087 37.6863C25.9825 36.2773 26.7765 34.7866 28.1874 34.3584C38.2623 31.3011 55.0084 31.8908 65.5913 38.1728C66.8582 38.9259 67.2747 40.5626 66.5235 41.8276C65.7742 43.0964 64.1337 43.5148 62.8687 42.7617Z" fill="#F7F7F7"/>
</svg>
