<svg width="92" height="92" viewBox="0 0 92 92" fill="none" xmlns="http://www.w3.org/2000/svg">
<path d="M80 0H12C5.37258 0 0 5.37259 0 12V80C0 86.6274 5.37259 92 12 92H80C86.6274 92 92 86.6274 92 80V12C92 5.37258 86.6274 0 80 0Z" fill="#F7F7F7"/>
<path fill-rule="evenodd" clip-rule="evenodd" d="M45.678 28.9458C48.7179 27.4259 52.4086 26.596 55.7804 26.3078L59.5759 25.9758C63.7296 25.6177 67.8876 25.836 72.0456 25.836H74.3299V28.116C74.3299 38.2446 74.3299 48.3732 74.3299 58.5061V59.6679C74.3299 70.1241 65.778 78.6759 55.3174 78.6759H17V25.836H19.2799C23.4467 25.836 27.5872 25.5653 31.7539 25.8841L35.5451 26.1724C39.1484 26.4432 42.446 27.3167 45.678 28.9458Z" fill="#4D4C4B"/>
<path fill-rule="evenodd" clip-rule="evenodd" d="M19.2798 28.116V54.1472V58.5061V59.6679V76.3961H36.008H38.6329H55.3174C64.52 76.3961 72.0455 68.8662 72.0455 59.6679V58.5061C72.0455 48.4343 72.0455 38.6115 72.0455 28.116C68.0491 28.116 63.8256 28.0199 59.7724 28.247L55.9769 28.5746C52.2644 29.0288 48.5082 29.8936 45.6649 31.5359C42.59 29.7626 39.24 28.8803 35.3703 28.4436L31.5792 28.1553C27.443 27.9631 23.202 28.116 19.2798 28.116Z" fill="#5FB74E"/>
<path fill-rule="evenodd" clip-rule="evenodd" d="M24.0144 76.396H36.008H38.6329H55.3174C59.3968 76.396 63.1399 74.9154 66.0487 72.4738C62.6507 64.5815 54.802 59.0564 45.6649 59.0564C35.0733 59.0564 26.2201 66.4727 24.0144 76.396Z" fill="#89C45F"/>
<path fill-rule="evenodd" clip-rule="evenodd" d="M45.6649 76.3962L55.514 76.2477C59.5366 76.2477 63.1967 74.8326 66.0488 72.474C69.722 69.4429 72.0456 64.8481 72.0456 59.6681V58.5063C72.0456 48.4345 72.0456 38.6116 72.0456 28.1161C68.0491 28.1161 63.8256 28.02 59.7724 28.2472L55.977 28.5747C52.2644 29.029 48.5083 29.8938 45.6649 31.536V76.3962Z" fill="#4A9E4B"/>
<path fill-rule="evenodd" clip-rule="evenodd" d="M45.6649 76.396H55.3786C59.458 76.396 63.1399 74.9197 66.0488 72.4738C62.69 64.6688 54.671 59.1787 45.6649 59.0564V76.396Z" fill="#5FB74E"/>
<path fill-rule="evenodd" clip-rule="evenodd" d="M59.7724 26.6706C59.0474 19.5469 53.0288 14 45.7261 14C38.419 14 32.4047 19.4989 31.5792 26.5788L35.3703 26.8715C36.043 21.757 40.4019 17.8042 45.7086 17.8042C51.0153 17.8042 55.4135 21.8225 55.9769 26.9938L59.7724 26.6706Z" fill="#4D4C4B"/>
<path fill-rule="evenodd" clip-rule="evenodd" d="M51.832 61.2796C50.181 63.0267 48.5301 64.7781 46.8791 66.5252L45.6649 67.8137L44.4507 66.5252C42.7953 64.7781 41.1444 63.0267 39.4934 61.2796L38.6373 60.3712L39.2619 59.2924C40.5897 57.0081 43.0661 55.7808 45.6649 55.7808C48.2593 55.7808 50.7357 57.0081 52.0635 59.2924L52.6881 60.3712L51.832 61.2796Z" fill="#4D4C4B"/>
<path fill-rule="evenodd" clip-rule="evenodd" d="M50.6179 60.1356C48.9669 61.8826 47.3159 63.6297 45.6649 65.3811C44.014 63.6297 42.3586 61.8826 40.7076 60.1356C41.7515 58.3361 43.7082 57.4451 45.6649 57.4495C47.6173 57.4451 49.574 58.3361 50.6179 60.1356Z" fill="#FDF8B4"/>
<path fill-rule="evenodd" clip-rule="evenodd" d="M50.6178 60.1356C48.9669 61.8826 47.3159 63.6297 45.6649 65.3811V57.4495C47.6173 57.4451 49.574 58.3361 50.6178 60.1356Z" fill="#FCD066"/>
<path fill-rule="evenodd" clip-rule="evenodd" d="M33.2827 34.6982C40.6858 34.6982 46.687 40.7038 46.687 48.1026C46.687 55.5014 40.6858 61.5069 33.2827 61.5069C25.8795 61.5069 19.8827 55.5014 19.8827 48.1026C19.8827 40.7038 25.8795 34.6982 33.2827 34.6982Z" fill="#4D4C4B"/>
<path fill-rule="evenodd" clip-rule="evenodd" d="M33.2826 36.9785C39.4235 36.9785 44.407 41.962 44.407 48.1029C44.407 54.2439 39.4235 59.223 33.2826 59.223C27.1373 59.223 22.1582 54.2439 22.1582 48.1029C22.1582 41.962 27.1373 36.9785 33.2826 36.9785Z" fill="#EEEFEE"/>
<path fill-rule="evenodd" clip-rule="evenodd" d="M33.2826 36.9785C38.3535 36.9785 42.6294 40.3722 43.9703 45.0106C42.6294 49.6491 38.3535 53.0428 33.2826 53.0428C28.2118 53.0428 23.9359 49.6491 22.5994 45.0106C23.9359 40.3722 28.2118 36.9785 33.2826 36.9785Z" fill="#FEFEFE"/>
<path fill-rule="evenodd" clip-rule="evenodd" d="M58.0429 34.6982C65.4461 34.6982 71.4472 40.7038 71.4472 48.1026C71.4472 55.5014 65.4461 61.5069 58.0429 61.5069C50.6441 61.5069 44.6385 55.5058 44.6385 48.1026C44.6385 40.7038 50.6441 34.6982 58.0429 34.6982Z" fill="#4D4C4B"/>
<path fill-rule="evenodd" clip-rule="evenodd" d="M58.0429 36.9785C64.1882 36.9785 69.1673 41.962 69.1673 48.1029C69.1673 54.2439 64.1882 59.223 58.0429 59.223C51.902 59.223 46.9229 54.2439 46.9229 48.1029C46.9229 41.962 51.902 36.9785 58.0429 36.9785Z" fill="#EEEFEE"/>
<path fill-rule="evenodd" clip-rule="evenodd" d="M58.0429 36.9785C63.1137 36.9785 67.394 40.3722 68.7305 45.0106C67.394 49.6491 63.1137 53.0428 58.0429 53.0428C52.972 53.0428 48.6961 49.6491 47.3552 45.0106C48.6961 40.3722 52.972 36.9785 58.0429 36.9785Z" fill="#FEFEFE"/>
<path fill-rule="evenodd" clip-rule="evenodd" d="M34.6803 41.1843C38.6461 41.1843 41.8651 44.3989 41.8651 48.3648C41.8651 52.335 38.6461 55.5495 34.6803 55.5495C30.7101 55.5495 27.4955 52.335 27.4955 48.3648C27.4955 47.0414 27.858 45.8009 28.4782 44.7396C28.9936 46.0062 30.234 46.8972 31.6884 46.8972C33.5971 46.8972 35.1476 45.3511 35.1476 43.438C35.1476 42.5776 34.8375 41.7958 34.3178 41.1931C34.4401 41.1843 34.5624 41.1843 34.6803 41.1843Z" fill="#4D4C4B"/>
<path fill-rule="evenodd" clip-rule="evenodd" d="M56.6452 41.1843C60.6154 41.1843 63.83 44.3989 63.83 48.3648C63.83 52.335 60.6154 55.5495 56.6452 55.5495C52.6793 55.5495 49.4604 52.335 49.4604 48.3648C49.4604 47.0414 49.8185 45.8009 50.4431 44.7396C50.9585 46.0062 52.2033 46.8972 53.6533 46.8972C55.5664 46.8972 57.1125 45.3511 57.1125 43.438C57.1125 42.5776 56.8024 41.7958 56.2827 41.1931C56.405 41.1843 56.5229 41.1843 56.6452 41.1843Z" fill="#4D4C4B"/>
</svg>
