<svg width="92" height="92" viewBox="0 0 92 92" fill="none" xmlns="http://www.w3.org/2000/svg">
<rect width="92" height="92" rx="12" fill="#20C4CB"/>
<path d="M56.7572 52.8191C55.1217 54.6283 52.832 55.5329 51.769 55.5329C50.5424 55.5329 49.8882 54.7928 49.7247 53.6414C49.6429 53.2303 49.7247 52.7368 49.8064 52.3257C50.2153 49.7763 51.1148 48.1316 51.1148 47.7204C51.1148 47.5559 51.033 47.4737 50.9513 47.4737C50.1335 47.4737 47.3532 50.352 46.9444 52.2434L46.6173 53.8059C46.372 54.875 45.3907 55.5329 44.6547 55.5329C44.3276 55.5329 44.0823 55.3684 44.0005 54.9572C44.0005 54.7928 44.0005 54.6283 44.0005 54.4638L44.1641 53.6414C42.6921 54.7928 41.0567 55.5329 40.3207 55.5329C39.2577 55.5329 38.6853 54.9572 38.5217 54.1349C37.8675 55.0395 36.968 55.5329 35.9867 55.5329C34.7601 55.5329 33.6153 54.7105 33.0429 53.477C32.2252 54.3816 31.2439 55.2862 30.099 56.0263C28.3818 57.0954 26.501 58 24.2931 58C22.2488 58 20.4498 56.9309 19.5503 56.0263C18.0784 54.7105 17.3424 52.6546 17.0971 50.8454C16.3611 45.0888 19.8774 37.4408 25.3562 34.1513C26.5828 33.4112 27.9729 33 29.2813 33C31.8981 33 33.8606 34.8914 34.1059 37.1118C34.3513 39.1678 33.5335 40.8947 31.3256 41.9638C30.1808 42.5395 29.6084 42.5395 29.4449 42.2105C29.3631 42.0461 29.3631 41.7171 29.6084 41.5526C31.7345 39.8257 31.7345 38.3454 31.4892 36.2895C31.3256 34.9737 30.5079 34.1513 29.5266 34.1513C25.2744 34.1513 19.3867 43.4441 20.2045 50.1875C20.5316 52.8191 22.167 55.8618 25.438 55.8618C26.501 55.8618 27.7276 55.5329 28.7089 55.0395C30.5079 54.1349 31.571 53.3947 32.5522 52.1612C32.3069 49.0362 35.0054 45.0888 38.9306 45.0888C40.6478 45.0888 42.038 45.7467 42.2015 47.1447C42.4468 48.8717 40.9749 49.2007 40.4025 49.2007C39.9119 49.2007 39.1759 49.0362 39.0941 48.625C39.0123 48.1316 40.1572 48.3783 39.9936 47.3092C39.9119 46.6513 39.1759 46.4046 38.5217 46.4046C36.0685 46.4046 34.6784 49.8586 34.9237 51.9967C35.0054 52.9836 35.5779 53.9704 36.3956 53.9704C37.1316 53.9704 38.1946 52.9013 38.5217 51.4211C38.767 50.352 39.7483 49.6941 40.4843 49.6941C40.8931 49.6941 41.1385 49.8586 41.1385 50.2697C41.1385 50.4342 41.1385 50.5987 41.1385 50.7632C41.0567 51.1743 40.7296 52.7368 40.7296 52.9836C40.7296 53.2303 40.8931 53.6414 41.3838 53.6414C41.7926 53.6414 43.101 52.9013 44.4094 51.75C44.8183 49.6941 45.3089 47.1447 45.3089 46.9803C45.4724 46.1579 45.7995 45.2533 47.435 45.2533C47.7621 45.2533 48.0074 45.4178 48.0892 45.8289C48.0892 45.9934 48.0892 46.1579 48.0892 46.3224L47.6803 48.5428C49.1522 46.5691 51.4419 45.0888 52.8321 45.0888C53.4045 45.0888 53.8951 45.4178 53.9769 45.9934C54.0587 46.3224 53.8951 46.898 53.7316 47.5559C53.2409 48.8717 52.6685 50.9276 52.3414 52.6546C52.2596 53.0658 52.4232 53.5592 53.0774 53.5592C53.6498 53.5592 55.367 52.9013 56.7572 51.0099C56.7572 50.7632 56.7572 50.5164 56.7572 50.1875C56.7572 48.7072 56.8389 47.5559 57.166 46.6513C57.4114 45.7467 58.5562 44.9243 59.2922 44.9243C59.701 44.9243 59.9463 45.1711 59.9463 45.5822C59.9463 45.7467 59.9463 45.9112 59.8646 46.0757C59.3739 47.6382 59.0468 49.0362 59.0468 50.4342C59.0468 51.2566 59.2104 52.4901 59.3739 53.148C59.3739 53.3125 59.4557 53.3947 59.6192 53.3947C59.8646 53.3947 61.5 51.8322 62.6449 49.8586C61.5818 49.2007 61.0094 47.9671 61.0094 46.4868C61.0094 44.0197 62.4813 42.7039 63.9532 42.7039C65.0981 42.7039 66.0793 43.5263 66.0793 45.1711C66.0793 46.2401 65.6705 47.3914 65.0981 48.5428C65.0981 48.5428 65.3434 48.5428 65.4252 48.5428C66.3247 48.5428 66.9788 48.1316 67.3877 47.6382C67.5513 47.4737 67.7148 47.3092 67.8784 47.227C69.0232 45.8289 70.7404 44.8421 72.703 44.8421C74.4202 44.8421 75.8104 45.5 75.9739 46.898C76.2192 48.625 74.6656 49.0362 74.1749 49.0362C73.6843 49.0362 72.8665 48.8717 72.8665 48.4605C72.7848 48.0493 73.9296 48.2138 73.8478 47.1447C73.766 46.4868 73.0301 46.1579 72.3759 46.1579C70.0862 46.1579 68.5325 49.2007 68.7779 51.75C68.8596 52.7368 69.3503 53.7237 70.2498 53.7237C70.9857 53.7237 72.0488 52.6546 72.4577 51.1743C72.703 50.1875 73.6843 49.4474 74.4202 49.4474C74.7473 49.4474 75.0744 49.6118 75.0744 50.023C75.0744 50.2697 74.9926 50.6809 74.6656 52.3257C74.502 52.9836 74.502 53.6414 74.502 54.0526C74.6656 55.0395 75.0744 55.6974 75.4833 56.1086C75.6468 56.273 75.7286 56.4375 75.7286 56.5197C75.7286 56.7664 75.5651 57.0132 75.238 57.0132C75.1562 57.0132 74.9926 57.0132 74.9109 56.9309C73.1119 56.1908 72.3759 54.9572 72.2123 53.8882C71.5582 54.7928 70.6587 55.2039 69.6774 55.2039C68.1237 55.2039 66.57 53.8059 66.3247 51.9967C66.2429 51.2566 66.3247 50.4342 66.57 49.6941C65.9158 50.1053 65.2616 50.352 64.6074 50.352C64.3621 50.352 64.1986 50.352 64.035 50.352C62.4813 52.5724 60.8458 54.1349 59.6192 54.875C59.1286 55.1217 58.638 55.2862 58.3109 55.2862C58.0655 55.2862 57.7385 55.2039 57.5749 54.9572C57.0843 54.6283 56.8389 53.8059 56.7572 52.8191ZM62.3178 45.4178C62.3178 46.4046 62.8084 47.3914 63.3808 48.0493C63.6261 47.3914 63.7897 46.7336 63.7897 46.0757C63.7897 44.8421 63.299 44.2664 62.972 44.2664C62.4813 44.2664 62.3178 44.9243 62.3178 45.4178Z" fill="#F7F7F7"/>
</svg>
