<svg width="92" height="92" viewBox="0 0 92 92" fill="none" xmlns="http://www.w3.org/2000/svg">
<path d="M80 0H12C5.37258 0 0 5.37259 0 12V80C0 86.6274 5.37259 92 12 92H80C86.6274 92 92 86.6274 92 80V12C92 5.37258 86.6274 0 80 0Z" fill="#000083"/>
<path d="M46.2208 68.1799C45.8342 68.1818 45.4532 68.0824 45.1164 67.8928C42.2395 66.227 20.9217 52.8606 20.1155 52.4538C19.5026 52.1667 19.0848 51.5814 19.013 50.9096V32.1612C18.9965 31.4618 19.3425 30.8029 19.9278 30.4182L20.0824 30.3298C22.1457 29.0506 29.048 24.8375 30.1413 24.2319C30.3916 24.0828 30.6769 24.0037 30.9677 24C31.2401 24.0037 31.5089 24.0718 31.75 24.1988C31.75 24.1988 41.4113 30.4955 42.8893 31.0587C43.9255 31.5354 45.0575 31.771 46.1987 31.7526C47.4908 31.7802 48.7682 31.4692 49.9038 30.8489C51.3487 30.0869 60.5793 24.2319 60.6787 24.2319C60.9106 24.0902 61.1775 24.0184 61.4499 24.0221C61.7425 24.0239 62.0278 24.1031 62.2763 24.254C63.5334 24.9479 72.0922 30.1863 72.4567 30.4182C73.0585 30.7826 73.423 31.436 73.4156 32.1391V50.8875C73.3475 51.5611 72.9279 52.1483 72.3131 52.4317C71.5069 52.8716 50.2554 66.2381 47.3233 67.8707C46.9883 68.0695 46.6091 68.1762 46.2208 68.1799Z" fill="url(#paint0_linear)"/>
<path d="M46.1104 68.1798H46.2208C46.6073 68.1817 46.9865 68.0823 47.3233 67.8927C50.2002 66.2269 71.5069 52.8605 72.3131 52.4537C72.9279 52.1703 73.3476 51.5831 73.4157 50.9095V32.1611C73.4193 31.8427 73.3475 31.5298 73.2058 31.2463L46.1104 46.1221V68.1798Z" fill="url(#paint1_linear)"/>
<path d="M46.0146 67.9148H45.906C45.5232 67.9185 45.1477 67.8191 44.8145 67.6314C41.9671 65.984 20.8886 52.7593 20.0916 52.3562C19.4824 52.0765 19.0664 51.4948 19.0001 50.8285V32.2808C18.9965 31.9661 19.0682 31.6569 19.2081 31.3752L46.0146 46.0927V67.9148Z" fill="url(#paint2_linear)"/>
<defs>
<linearGradient id="paint0_linear" x1="19.0167" y1="46.3007" x2="73.1138" y2="45.881" gradientUnits="userSpaceOnUse">
<stop stop-color="#FFB800"/>
<stop offset="0.329412" stop-color="#F28000"/>
<stop offset="0.560784" stop-color="#F73B72"/>
<stop offset="0.780392" stop-color="#FB1CBD"/>
<stop offset="0.929412" stop-color="#FD08ED"/>
<stop offset="1" stop-color="#FF00FF"/>
</linearGradient>
<linearGradient id="paint1_linear" x1="34.2348" y1="63.847" x2="89.4344" y2="33.2839" gradientUnits="userSpaceOnUse">
<stop stop-color="#ED0A3F"/>
<stop offset="1" stop-color="#ED0A3F"/>
</linearGradient>
<linearGradient id="paint2_linear" x1="41.2622" y1="39.1297" x2="11.3267" y2="50.1494" gradientUnits="userSpaceOnUse">
<stop stop-color="#ED5B00"/>
<stop offset="0.0862745" stop-color="#F37D00"/>
<stop offset="0.14902" stop-color="#EF6200"/>
<stop offset="0.501961" stop-color="#FB8A00"/>
<stop offset="1" stop-color="#F9A000"/>
</linearGradient>
</defs>
</svg>
