<svg width="92" height="92" viewBox="0 0 92 92" fill="none" xmlns="http://www.w3.org/2000/svg">
<rect width="92" height="92" rx="12" fill="#F7F7F7"/>
<path d="M0 12C0 5.37259 5.37258 0 12 0H79.9989C86.6264 0 91.9989 5.37258 91.9989 12V79.9966C91.9989 86.6241 86.6263 91.9966 79.9989 91.9966H12C5.37257 91.9966 0 86.6241 0 79.9966V12Z" fill="#293243"/>
<path opacity="0.302" fill-rule="evenodd" clip-rule="evenodd" d="M91.9989 53.2135V79.9966C91.9989 86.6241 86.6263 91.9966 79.9989 91.9966H52.3169L23.1077 69.6757L23.7617 24.3504L30.5201 23.2229L54.5016 43.2923L58.6439 36.3018L62.7861 40.1353L68.4545 35.8508L91.9989 53.2135Z" fill="black"/>
<path d="M23.1125 23.2224H30.4853V62.558H47.0895V69.6536H23.1125V23.2224Z" fill="#9CC6D4"/>
<path d="M52.3641 46.9205C52.3641 42.3737 52.3043 39.136 52.1243 36.1048H58.538L58.778 42.5115H59.0179C60.4565 37.7582 63.8732 35.3472 66.9902 35.3472C67.7094 35.3472 68.1291 35.4162 68.7284 35.554V43.5452C68.1291 43.4074 67.4698 43.2696 66.5707 43.2696C63.0339 43.2696 60.6364 45.8874 59.9771 49.6763C59.857 50.434 59.7371 51.3296 59.7371 52.2939V69.6539H52.3643V46.9205H52.3641Z" fill="#9CC6D4"/>
</svg>
