<svg width="92" height="92" viewBox="0 0 92 92" fill="none" xmlns="http://www.w3.org/2000/svg">
<path d="M80 0H12C5.37258 0 0 5.37259 0 12V80C0 86.6274 5.37259 92 12 92H80C86.6274 92 92 86.6274 92 80V12C92 5.37258 86.6274 0 80 0Z" fill="#E2004D"/>
<path fill-rule="evenodd" clip-rule="evenodd" d="M19.2994 19.6846L29.1549 16.2814C30.5057 15.8147 31.8458 15.9295 33.0978 16.6183C34.3499 17.3071 35.1642 18.3789 35.4925 19.7694L42.7935 50.6805C43.3665 53.1042 42.0457 55.5428 39.7025 56.3883L35.6856 57.8378C33.2877 58.7025 30.6441 57.5878 29.5905 55.266L16.4508 26.3087C15.8629 25.0126 15.85 23.6747 16.4122 22.3669C16.9733 21.0601 17.955 20.1492 19.2994 19.6846Z" fill="#F7F7F7"/>
<path d="M43.0392 75.494C46.9447 74.6275 49.4083 70.7591 48.5418 66.8537C47.6754 62.9482 43.807 60.4846 39.9015 61.3511C35.9961 62.2175 33.5325 66.0859 34.3989 69.9914C35.2654 73.8968 39.1338 76.3604 43.0392 75.494Z" fill="#F7F7F7"/>
<path fill-rule="evenodd" clip-rule="evenodd" d="M57.0233 55.693C56.8892 55.7617 55.6747 56.208 54.3937 56.6436C52.1438 57.4107 51.0141 59.9374 51.7801 62.1872L53.3358 66.7588C53.7392 67.9444 54.5139 68.8199 55.6425 69.3627C56.7712 69.9067 57.843 69.8005 59.0372 69.4239C68.9357 66.2996 75.6101 58.062 75.2314 47.4221C74.8419 36.4797 67.1418 28.0886 57.3967 26.0179C53.898 25.2744 51.0012 25.3709 47.6473 25.8237C46.9081 25.9235 45.7258 26.2056 45.2881 26.8097C44.8503 27.4137 44.7065 28.1014 44.8643 28.831L46.7622 37.5912C47.0261 38.8089 48.201 39.6522 49.4241 39.4097C51.3134 39.0353 52.9678 39.1007 54.1748 39.2477C58.7207 39.8035 61.4887 43.7346 61.6422 47.5916C61.7966 51.4487 60.3611 53.8423 57.0233 55.693Z" fill="#F7F7F7"/>
</svg>
