<svg width="92" height="92" viewBox="0 0 92 92" fill="none" xmlns="http://www.w3.org/2000/svg">
<rect width="92" height="92" rx="12" fill="#F57D00"/>
<path d="M70.8267 38.5975H66.267C63.9286 38.5975 63.496 36.811 63.496 34.6059C63.4984 25.1474 55.845 17.48 46.4075 17.48H34.5709C25.131 17.48 17.48 25.1474 17.48 34.6059V56.474C17.48 65.9326 25.131 73.6 34.5709 73.6H56.5114C65.949 73.6 73.6 65.9326 73.6 56.474V41.3754C73.6 39.8391 72.3583 38.5975 70.8267 38.5975ZM34.7509 31.51H44.6397C46.4285 31.51 47.8783 33.079 47.8783 35.0175C47.8783 36.956 46.4285 38.525 44.6374 38.525H34.7509C32.9597 38.525 31.51 36.956 31.51 35.0175C31.51 33.079 32.9597 31.51 34.7509 31.51ZM56.1092 59.57H34.9707C33.0603 59.57 31.51 57.9986 31.51 56.0625C31.51 54.1217 33.0603 52.555 34.9707 52.555H56.1069C58.0173 52.555 59.5676 54.1217 59.5676 56.0625C59.57 57.9986 58.0197 59.57 56.1092 59.57Z" fill="#F7F7F7"/>
</svg>
