<svg width="92" height="92" viewBox="0 0 92 92" fill="none" xmlns="http://www.w3.org/2000/svg">
<rect x="1" y="1" width="90" height="90" rx="11" fill="#202020" stroke="#202020" stroke-width="2"/>
<path fill-rule="evenodd" clip-rule="evenodd" d="M24.8095 33.7461C24.8771 33.1051 24.6226 32.4727 24.1271 32.0425L19.0825 26.1757V25.3H34.7525L46.8642 50.9292L57.512 25.3H72.4501V26.1757L68.1351 30.1673C67.7635 30.4411 67.5788 30.8909 67.6554 31.3363V60.6659C67.5788 61.1092 67.7635 61.559 68.1351 61.8328L72.3487 65.8244V66.7001H51.1521V65.8244L55.5189 61.735C55.9468 61.3222 55.9468 61.2005 55.9468 60.5682V36.862L43.8103 66.6044H42.1708L28.039 36.862V56.796C27.9219 57.6326 28.2102 58.4779 28.8205 59.0819L34.498 65.7266V66.6044H18.4001V65.7266L24.0776 59.0819C24.6856 58.4757 24.9559 57.6261 24.8095 56.796V33.7461Z" fill="#F7F7F7"/>
</svg>
