<svg width="92" height="92" viewBox="0 0 92 92" fill="none" xmlns="http://www.w3.org/2000/svg">
<rect width="92" height="92" rx="12" fill="#E74D89"/>
<path d="M46.0317 74.9336C30.0539 74.9336 17.0634 61.9658 17.0634 46.0106C17.0634 30.0328 30.0539 17.0649 46.0317 17.0649C62.0095 17.0649 75 30.0328 75 45.988C75 61.9432 62.0095 74.9336 46.0317 74.9336ZM70.4511 49.9485C69.6137 49.6769 62.8016 47.6627 55.039 48.8848C58.2753 57.7564 59.588 64.9984 59.8369 66.4921C65.4043 62.7579 69.3648 56.8285 70.4511 49.9485ZM55.6954 68.7779C55.3333 66.6053 53.8848 59.0463 50.4222 50.039C50.377 50.0616 50.3091 50.0843 50.2638 50.0843C36.3002 54.95 31.2986 64.6137 30.846 65.519C35.0328 68.7779 40.3059 70.7242 46.0317 70.7242C49.4491 70.7468 52.7306 70.0452 55.6954 68.7779ZM27.6549 62.5542C28.2207 61.6037 35.0102 50.3785 47.7743 46.2369C48.0912 46.1238 48.4307 46.0332 48.7475 45.9427C48.1364 44.5396 47.4575 43.1364 46.7333 41.7559C34.3765 45.4448 22.3818 45.2864 21.2955 45.2638C21.2955 45.5127 21.2729 45.7617 21.2729 46.0106C21.2955 52.3701 23.6944 58.1637 27.6549 62.5542ZM21.816 40.9638C22.925 40.9864 33.1091 41.0317 44.6965 37.9538C40.6002 30.6665 36.1644 24.556 35.5307 23.6733C28.5828 26.9323 23.4229 33.3143 21.816 40.9638ZM40.2381 21.9986C40.917 22.9039 45.4207 29.0144 49.4717 36.4601C58.2753 33.1559 61.9869 28.177 62.4395 27.5433C58.0717 23.6733 52.3233 21.3197 46.0317 21.3197C44.0401 21.3197 42.0938 21.5686 40.2381 21.9986ZM65.1779 30.3949C64.6574 31.0965 60.5159 36.4149 51.3727 40.1491C51.9385 41.3259 52.5043 42.5254 53.0248 43.7248C53.2059 44.1548 53.3869 44.5848 53.568 44.9922C61.8059 43.9511 69.9758 45.6259 70.7906 45.7843C70.7227 39.968 68.6406 34.6043 65.1779 30.3949Z" fill="#F7F7F7"/>
</svg>
