<svg width="92" height="92" viewBox="0 0 92 92" fill="none" xmlns="http://www.w3.org/2000/svg">
<rect width="92" height="92" rx="12" fill="#7289DA"/>
<path d="M59.0352 65.9531L55.877 62.1934C62.043 60.5391 64.4492 56.3281 64.4492 56.3281C56.6289 63.6973 35.2734 63.998 27.002 56.3281C27.002 56.3281 29.1074 60.2383 35.4238 62.1934L31.9648 65.9531C21.4375 65.8027 17.377 58.7344 17.377 58.7344C17.377 43.0938 24.2949 30.6113 24.2949 30.6113C31.3633 25.6484 37.8301 25.6484 37.8301 25.6484L38.2812 26.25C29.5586 28.6562 25.7988 32.5664 25.7988 32.5664C36.0254 25.6484 57.0801 26.25 65.3516 32.5664C65.502 32.416 60.3887 28.3555 52.418 26.25L53.1699 25.6484C53.1699 25.6484 59.6367 25.6484 66.7051 30.6113C66.7051 30.6113 73.623 43.0938 73.623 58.7344C73.623 58.7344 69.5625 65.8027 59.0352 65.9531Z" fill="#F7F7F7"/>
<path d="M36.4766 54.2227C39.2175 54.2227 41.4395 51.866 41.4395 48.959C41.4395 46.0519 39.2175 43.6953 36.4766 43.6953C33.7356 43.6953 31.5137 46.0519 31.5137 48.959C31.5137 51.866 33.7356 54.2227 36.4766 54.2227Z" fill="#7289DA"/>
<path d="M53.9219 54.2227C56.6628 54.2227 58.8848 51.866 58.8848 48.959C58.8848 46.0519 56.6628 43.6953 53.9219 43.6953C51.1809 43.6953 48.959 46.0519 48.959 48.959C48.959 51.866 51.1809 54.2227 53.9219 54.2227Z" fill="#7289DA"/>
</svg>
