<svg width="92" height="92" viewBox="0 0 92 92" fill="none" xmlns="http://www.w3.org/2000/svg">
<path d="M80 0H12C5.37258 0 0 5.37259 0 12V80C0 86.6274 5.37259 92 12 92H80C86.6274 92 92 86.6274 92 80V12C92 5.37258 86.6274 0 80 0Z" fill="url(#paint0_linear)"/>
<path fill-rule="evenodd" clip-rule="evenodd" d="M74.1104 30.4924C74.1104 29.8232 73.5728 29.2809 72.909 29.2809H59.8853C59.5669 20.7795 53.4978 14 46.0568 14C38.6158 14 32.5466 20.7795 32.2282 29.2809H19.1875C18.5329 29.2933 18.0054 29.8309 18.0054 30.4924C18.0054 30.5242 18.0077 30.556 18.0101 30.5869H18L19.8583 71.5667C19.8583 71.6813 19.863 71.7952 19.873 71.9121C19.873 71.9385 19.8754 71.9633 19.8777 71.9896L19.8823 72.0771L19.887 72.0795C20.1689 74.9324 22.2395 77.2291 25.0514 77.336L25.0583 77.3407H66.6315L66.6338 77.3384C69.4968 77.2609 71.8176 74.9324 72.0608 72.0454L72.0631 72.0431L72.0654 72.0043C72.0677 71.9749 72.0701 71.9462 72.0701 71.9145C72.0747 71.8417 72.0801 71.7688 72.0801 71.6976L74.1104 30.5552H74.1081C74.1104 30.5335 74.1104 30.5141 74.1104 30.4924ZM46.0568 17.6973C51.476 17.6973 55.896 22.8423 56.1028 29.2809H36.0107C36.2175 22.8423 40.6344 17.6973 46.0568 17.6973ZM56.3391 61.4067C55.9719 64.4471 54.1283 66.8849 51.2723 68.1033C49.6812 68.7842 47.5479 69.1514 45.8577 69.0352C43.2209 68.9353 40.7444 68.2931 38.4632 67.1211C37.6459 66.7028 36.4321 65.8662 35.4979 65.0831C35.2616 64.8863 35.233 64.7593 35.3887 64.5354C35.4739 64.4092 35.6296 64.1807 35.9751 63.6741C36.4739 62.942 36.5343 62.8522 36.5932 62.7647C36.7512 62.5214 37.0115 62.4997 37.2671 62.7011C37.2943 62.7205 37.2943 62.7205 37.3159 62.7375C37.357 62.7693 37.357 62.7693 37.4569 62.8468C37.5568 62.9242 37.6149 62.9707 37.6397 62.9877C40.1015 64.9165 42.9691 66.0281 45.8639 66.1404C49.8919 66.0847 52.789 64.2744 53.3072 61.4943C53.8789 58.4345 51.4752 55.79 46.7764 54.3159C45.3046 53.8565 41.5903 52.3677 40.9048 51.9665C37.6893 50.0787 36.1834 47.6077 36.3972 44.5526C36.7257 40.32 40.6538 37.1627 45.6214 37.141C47.8423 37.1387 50.0584 37.598 52.1863 38.4958C52.94 38.8142 54.2856 39.547 54.7503 39.8917C55.0176 40.0884 55.071 40.3177 54.9184 40.5656C54.8309 40.7089 54.6899 40.9351 54.3932 41.4099L54.3886 41.4146C53.9966 42.0374 53.985 42.0567 53.8951 42.2024C53.7395 42.441 53.5543 42.4626 53.2747 42.2853C50.9957 40.7554 48.4705 39.9839 45.6927 39.9281C42.2363 39.9963 39.6452 42.0544 39.4756 44.8585C39.4291 47.3908 41.3293 49.2367 45.4301 50.648C53.7534 53.3236 56.9394 56.4592 56.3391 61.4067Z" fill="#F7F7F7"/>
<defs>
<linearGradient id="paint0_linear" x1="0.000251562" y1="46.0002" x2="92.0003" y2="46.0002" gradientUnits="userSpaceOnUse">
<stop stop-color="#FF6633"/>
<stop offset="0.3304" stop-color="#FD5D32"/>
<stop offset="0.8782" stop-color="#F7432E"/>
<stop offset="0.9944" stop-color="#F53D2D"/>
</linearGradient>
</defs>
</svg>
