<svg width="92" height="92" viewBox="0 0 92 92" fill="none" xmlns="http://www.w3.org/2000/svg">
<rect width="92" height="92" rx="12" fill="url(#paint0_linear)"/>
<path d="M46.5757 18.4265C35.5063 18.4265 24.9948 17.4217 20.9798 27.9368C19.3214 32.2797 19.5622 37.9199 19.5622 45.996C19.5622 53.0828 19.3397 59.7434 20.9798 64.0521C24.9857 74.5735 35.5825 73.5655 46.5696 73.5655C57.1695 73.5655 68.0987 74.6917 72.1624 64.0521C73.8239 59.6657 73.58 54.1095 73.58 45.996C73.58 35.2258 74.1623 28.2728 69.0438 23.0525C63.8612 17.7639 56.8525 18.4265 46.5635 18.4265H46.5757ZM44.1551 23.3947C67.2451 23.3574 70.1839 20.738 68.5621 57.1271C67.9859 69.9972 58.3829 68.5848 46.5788 68.5848C25.0558 68.5848 24.4369 67.9564 24.4369 45.9836C24.4369 23.7556 26.1441 23.4072 44.1551 23.3885V23.3947ZM60.9955 27.971C59.206 27.971 57.7549 29.4518 57.7549 31.278C57.7549 33.1041 59.206 34.5849 60.9955 34.5849C62.785 34.5849 64.2361 33.1041 64.2361 31.278C64.2361 29.4518 62.785 27.971 60.9955 27.971ZM46.5757 31.8379C38.9146 31.8379 32.7047 38.1781 32.7047 45.996C32.7047 53.8139 38.9146 60.151 46.5757 60.151C54.2368 60.151 60.4437 53.8139 60.4437 45.996C60.4437 38.1781 54.2368 31.8379 46.5757 31.8379ZM46.5757 36.8062C58.4804 36.8062 58.4957 55.1859 46.5757 55.1859C34.6741 55.1859 34.6558 36.8062 46.5757 36.8062Z" fill="#F7F7F7"/>
<defs>
<linearGradient id="paint0_linear" x1="6.17704" y1="86.0062" x2="91.4213" y2="12.2138" gradientUnits="userSpaceOnUse">
<stop stop-color="#FFDD55"/>
<stop offset="0.5" stop-color="#FF543E"/>
<stop offset="1" stop-color="#C837AB"/>
</linearGradient>
</defs>
</svg>
