<svg width="92" height="92" viewBox="0 0 92 92" fill="none" xmlns="http://www.w3.org/2000/svg">
<rect width="92" height="92" rx="12" fill="#F7F7F7"/>
<path d="M21.5607 66.9999H69.7726C70.9821 66.9999 72.1421 66.5194 72.9974 65.6641C73.8527 64.8088 74.3332 63.6488 74.3332 62.4393V28.5606C74.3332 27.351 73.8527 26.191 72.9974 25.3358C72.1421 24.4805 70.9821 24 69.7726 24H21.5607C20.3511 24 19.1911 24.4805 18.3358 25.3358C17.4806 26.191 17.0001 27.351 17.0001 28.5606V62.4393C17.0001 63.6488 17.4806 64.8088 18.3358 65.6641C19.1911 66.5194 20.3511 66.9999 21.5607 66.9999Z" fill="#E0E0E0"/>
<path d="M48.2727 66.9999H69.7726C70.9821 66.9999 72.1421 66.5194 72.9974 65.6641C73.8527 64.8088 74.3332 63.6488 74.3332 62.4393V28.5606C74.3332 27.351 73.8527 26.191 72.9974 25.3358C72.1421 24.4805 70.9821 24 69.7726 24H21.5607C20.3511 24 19.1911 24.4805 18.3358 25.3358C17.4806 26.191 17.0001 27.351 17.0001 28.5606L48.2727 66.9999Z" fill="#D9D9D9"/>
<path d="M23.1843 66.9997H69.7727C70.9823 66.9997 72.1423 66.5192 72.9975 65.6639C73.8528 64.8086 74.3333 63.6486 74.3333 62.4391V29.2119L23.1843 66.9997Z" fill="#EEEEEE"/>
<path d="M47.9418 66.9997H69.7727C70.9822 66.9997 72.1422 66.5192 72.9975 65.6639C73.8528 64.8086 74.3333 63.6486 74.3333 62.4391V29.2119L38.8519 55.4249L47.9418 66.9997Z" fill="#E0E0E0"/>
<path d="M69.7726 26.6063H21.5607C19.0406 26.6063 17.0001 26.0408 17.0001 28.5608V62.4395C17.0001 63.649 17.4806 64.809 18.3358 65.6643C19.1911 66.5196 20.3511 67.0001 21.5607 67.0001H23.5152V29.8638H67.8181V67.0001H69.7726C70.9821 67.0001 72.1421 66.5196 72.9974 65.6643C73.8527 64.809 74.3332 63.649 74.3332 62.4395V28.5608C74.3332 26.0408 72.2927 26.6063 69.7726 26.6063Z" fill="#CA3737"/>
<path d="M69.7726 24.0001H21.5607C20.9608 23.9966 20.3662 24.1122 19.8113 24.3402C19.2564 24.5682 18.7523 24.904 18.3281 25.3281C17.904 25.7523 17.5682 26.2564 17.3402 26.8113C17.1122 27.3662 16.9966 27.9608 17.0001 28.5607C17.0001 30.1334 18.9807 31.5029 18.9807 31.5029L45.6666 50.3968L72.3526 31.5029C72.3526 31.5029 74.3332 30.1334 74.3332 28.5607C74.3367 27.9608 74.2211 27.3662 73.9931 26.8113C73.7651 26.2564 73.4293 25.7523 73.0051 25.3281C72.581 24.904 72.0768 24.5682 71.522 24.3402C70.9671 24.1122 70.3725 23.9966 69.7726 24.0001Z" fill="#F5F5F5"/>
<path d="M70.7447 24.1069L45.6666 41.5909L20.5886 24.1069C19.569 24.3224 18.6551 24.8833 18.0012 25.6948C17.3474 26.5063 16.9938 27.5186 17.0001 28.5607C17.0001 30.1334 18.9807 31.5029 18.9807 31.5029L45.6666 50.3968L72.3526 31.5029C72.3526 31.5029 74.3332 30.1334 74.3332 28.5607C74.3395 27.5186 73.9859 26.5063 73.3321 25.6948C72.6782 24.8833 71.7643 24.3224 70.7447 24.1069Z" fill="#E84F4B"/>
</svg>
